<?xml version="1.0" encoding="utf-8"?>
<!-- Generator: Adobe Illustrator 16.0.0, SVG Export Plug-In . SVG Version: 6.00 Build 0)  -->
<!DOCTYPE svg PUBLIC "-//W3C//DTD SVG 1.1//EN" "http://www.w3.org/Graphics/SVG/1.1/DTD/svg11.dtd">
<svg xmlns="http://www.w3.org/2000/svg" xmlns:xlink="http://www.w3.org/1999/xlink" version="1.1" x="0px" y="0px" width="57px" height="57px" viewBox="0 0 57 57" enable-background="new 0 0 57 57" xml:space="preserve">
<g id="blue">
	<path fill="#0033F6" d="M47.966,24.076c0,2.392-1.94,4.329-4.33,4.329s-4.329-1.938-4.329-4.329c0-2.392,1.939-4.332,4.329-4.332   S47.966,21.684,47.966,24.076z"/>
	<g>
		<path fill="#0033F6" d="M46.841,19.252c0,0,0.098,0.07,0.28,0.204c0.093,0.066,0.203,0.148,0.335,0.246    c0.127,0.102,0.271,0.225,0.438,0.363c0.038,0.036,0.08,0.07,0.123,0.108c0.013,0.011,0.017,0.013,0.038,0.032l0.029,0.03    c0.021,0.019,0.043,0.038,0.064,0.058c0.08,0.08,0.169,0.163,0.263,0.25c0.043,0.045,0.089,0.089,0.14,0.134    c0.047,0.047,0.094,0.1,0.141,0.151c0.098,0.104,0.195,0.214,0.297,0.325l0.038,0.044l0.021,0.021l0.004,0.004    c0,0,0.018,0.026,0.013,0.017l0.009,0.011c0.021,0.027,0.047,0.057,0.072,0.087c0.047,0.057,0.094,0.117,0.14,0.178    c0.098,0.121,0.2,0.238,0.298,0.388c0.051,0.072,0.102,0.145,0.152,0.221c0.025,0.036,0.051,0.074,0.076,0.113l0.039,0.057    l0.004,0.006c0.009,0.013-0.004-0.015,0.017,0.028l0.009,0.015l0.013,0.027c0.089,0.146,0.179,0.297,0.268,0.45    c0.089,0.172,0.174,0.365,0.263,0.554l0.018,0.036l0.008,0.02l0.005,0.008c0-0.002,0.021,0.064,0.013,0.041l0.025,0.063    c0.017,0.045,0.034,0.089,0.051,0.134c0.034,0.087,0.068,0.176,0.102,0.268c0.018,0.04,0.03,0.098,0.047,0.152    c0.018,0.056,0.029,0.113,0.047,0.168c0.025,0.114,0.055,0.229,0.084,0.346c0.018,0.11,0.035,0.225,0.052,0.338l0.025,0.148    l0.013,0.076l0.004,0.096c0.009,0.127,0.018,0.257,0.018,0.388l0.004,0.1v0.051v0.011c0.004-0.038-0.004,0.067-0.004,0.062v0.019    l-0.014,0.155c-0.008,0.106-0.012,0.21-0.021,0.316c-0.021,0.129-0.047,0.27-0.077,0.407l-0.042,0.206l-0.004,0.027l-0.005,0.013    c-0.004,0.015,0.009-0.019-0.008,0.041L50.75,27.1l-0.021,0.079l-0.021,0.079c-0.01,0.025-0.018,0.051-0.03,0.087l-0.076,0.204    c-0.025,0.072-0.051,0.13-0.076,0.193c-0.03,0.06-0.056,0.123-0.085,0.183l-0.09,0.18l-0.021,0.047l-0.013,0.021    c0.021-0.036-0.038,0.063-0.034,0.055l-0.004,0.011l-0.043,0.07c-0.06,0.096-0.114,0.191-0.174,0.289l-0.043,0.072l-0.067,0.089    l-0.132,0.174l-0.14,0.174l-0.068,0.088l-0.094,0.102c-0.08,0.082-0.156,0.166-0.237,0.248c-0.063,0.076-0.183,0.178-0.293,0.273    l-0.161,0.145l-0.085,0.07l-0.038,0.036l-0.021,0.017c0.025-0.017-0.047,0.034-0.042,0.034l-0.009,0.005    c-0.094,0.067-0.187,0.135-0.28,0.203l-0.145,0.102l-0.033,0.03l-0.047,0.025l-0.089,0.056c-0.119,0.076-0.238,0.148-0.357,0.221    l-0.093,0.055l-0.021,0.017c0.021-0.013-0.047,0.021-0.042,0.021l-0.009,0.005l-0.038,0.021l-0.157,0.081l-0.314,0.165    c-0.11,0.056-0.246,0.11-0.369,0.161l-0.19,0.081l-0.094,0.042l-0.047,0.021l-0.025,0.009l-0.034,0.013l-0.008,0.004l-0.336,0.123    c-0.114,0.039-0.216,0.081-0.34,0.123l-0.382,0.119l-0.19,0.055L44.893,31.9l-0.068,0.021l-0.047,0.014l-0.344,0.08l-0.348,0.085    l-0.378,0.076l-0.382,0.072l-0.068,0.013l-0.042,0.009l-0.089,0.013l-0.175,0.021c-0.233,0.033-0.454,0.067-0.713,0.093    c-0.123,0.013-0.246,0.025-0.373,0.038l-0.183,0.021l-0.11,0.008l-0.09,0.005c-0.229,0.013-0.458,0.025-0.688,0.038    c-0.233,0.009-0.479,0.013-0.717,0.018L39.9,32.529h-0.119h-0.084c-0.11-0.004-0.226-0.009-0.336-0.013    c-0.441-0.021-0.879-0.034-1.308-0.06l-0.08-0.004c0.042,0-0.072,0-0.063,0l-0.009-0.004H37.88l-0.038-0.005l-0.161-0.017    c-0.102-0.014-0.208-0.025-0.31-0.034c-0.208-0.026-0.416-0.047-0.62-0.072c-0.199-0.025-0.399-0.051-0.599-0.077l-0.145-0.016    c0.005,0-0.085-0.01-0.051-0.005l-0.009-0.005h-0.021l-0.034-0.008l-0.072-0.013c-0.098-0.017-0.191-0.034-0.288-0.052    c-0.374-0.076-0.739-0.144-1.092-0.211c-0.182-0.039-0.364-0.077-0.543-0.115c-0.161-0.043-0.327-0.08-0.483-0.123    c-0.314-0.09-0.611-0.166-0.892-0.246c-0.141-0.039-0.276-0.076-0.407-0.115c-0.064-0.017-0.128-0.037-0.191-0.055h-0.009    c0.005,0-0.034-0.008-0.021-0.008l-0.014-0.005l-0.021-0.005l-0.047-0.017c-0.03-0.013-0.06-0.021-0.089-0.034    c-0.238-0.08-0.459-0.156-0.654-0.229c-0.789-0.289-1.235-0.48-1.235-0.48s0.484-0.004,1.32,0.03    c0.213,0.009,0.441,0.021,0.696,0.034c0.029,0,0.063,0,0.094,0.004h0.051l0.021,0.004h0.013c0.017,0-0.018-0.004-0.009-0.004    h0.004c0.068,0,0.132,0.004,0.2,0.004c0.136,0,0.279,0.005,0.424,0.009c0.289,0,0.599,0.013,0.926,0.021    c0.161,0.004,0.331,0.013,0.501,0.021h0.029h0.017c0.009,0.005-0.046-0.004-0.021,0h0.008h0.064    c0.046-0.004,0.089-0.004,0.131-0.004c0.09,0,0.175,0,0.268,0c0.356,0.004,0.726,0.004,1.112,0.009c0.094,0,0.191,0,0.289,0.005    h0.071h0.039h0.017h0.013c0.038,0.004-0.047,0-0.034,0c0.051-0.005,0.098-0.005,0.148-0.005c0.2-0.009,0.399-0.013,0.604-0.021    c0.203-0.004,0.411-0.009,0.619-0.013c0.106,0,0.213-0.004,0.318-0.004l0.157-0.004h0.038h0.021h0.013    c0.013,0-0.098-0.005-0.047,0l0.081-0.009c0.429-0.034,0.865-0.052,1.307-0.081c0.11-0.008,0.226-0.013,0.336-0.021l0.085-0.004    c-0.013,0,0.033,0-0.021,0h0.009l0.021-0.004l0.039-0.004l0.161-0.014c0.212-0.021,0.424-0.042,0.641-0.063    c0.225-0.025,0.454-0.056,0.684-0.085l0.085-0.008h0.013c0.021-0.005-0.018,0-0.009,0l0.021-0.005l0.038-0.004l0.161-0.025    c0.106-0.013,0.212-0.03,0.318-0.047c0.208-0.025,0.446-0.072,0.675-0.114l0.323-0.06l0.31-0.068l0.314-0.065l0.344-0.087    l0.344-0.087l0.042-0.011c0.009-0.005-0.034,0.009-0.013,0.002l0.009-0.002l0.021-0.007l0.071-0.023l0.149-0.045l0.297-0.084    c0.102-0.032,0.221-0.076,0.331-0.115l0.335-0.116l0.251-0.104c0.093-0.037,0.178-0.067,0.28-0.114l0.318-0.15l0.161-0.075    l0.038-0.019l0.009-0.004c0.013-0.007-0.052,0.027-0.021,0.01l0.017-0.008l0.06-0.034l0.246-0.131l0.06-0.034l0.029-0.015    l0.039-0.023l0.144-0.098c0.098-0.063,0.195-0.127,0.289-0.191l0.178-0.129c0.068-0.053,0.132-0.089,0.226-0.178    c0.085-0.077,0.165-0.155,0.25-0.231l0.03-0.027l0.017-0.015l0.009-0.006c-0.068,0.07-0.018,0.015-0.03,0.03l0.038-0.044    l0.081-0.085c0.025-0.028,0.056-0.058,0.081-0.085l0.042-0.041c0.017-0.019,0.034-0.044,0.051-0.066    c0.068-0.091,0.136-0.18,0.2-0.27l0.051-0.067l0.004-0.007c0.009-0.013-0.047,0.079-0.021,0.036l0.009-0.013l0.017-0.027    l0.068-0.108c0.025-0.036,0.042-0.074,0.063-0.112c0.021-0.036,0.047-0.074,0.06-0.106l0.051-0.098    c0.009-0.011,0.018-0.038,0.03-0.063l0.029-0.074l0.029-0.074l0.018-0.038c-0.018,0.053-0.005,0.01-0.009,0.021l0.004-0.006    l0.005-0.013l0.034-0.104c0.029-0.072,0.055-0.142,0.08-0.212c0.021-0.104,0.043-0.208,0.06-0.31l0.034-0.155v-0.017    c0.004-0.015-0.009,0.085,0,0.04v-0.009v-0.027l0.008-0.055c0.009-0.074,0.018-0.148,0.03-0.225    c0.004-0.019,0.004-0.036,0.009-0.057v-0.077l-0.005-0.15v-0.15v-0.075v-0.038v-0.017v-0.011c0.009,0.079,0,0.02,0.005,0.034    c-0.009-0.079-0.013-0.157-0.021-0.235l-0.009-0.117c0-0.04,0-0.076-0.013-0.127C49.149,24.171,49.12,24,49.086,23.83    c-0.038-0.157-0.076-0.312-0.114-0.462c-0.06-0.17-0.115-0.335-0.17-0.497l-0.009-0.031l-0.008-0.015    c0.021,0.038,0.004,0.006,0.008,0.015l-0.004-0.009l-0.021-0.053c-0.013-0.036-0.029-0.07-0.042-0.106    c-0.03-0.072-0.056-0.143-0.085-0.212c-0.047-0.138-0.119-0.284-0.187-0.422c-0.034-0.07-0.064-0.14-0.098-0.208    c-0.018-0.034-0.03-0.068-0.047-0.1l-0.005-0.013c-0.008-0.013,0.005,0.009,0.005,0.004l-0.005-0.004l-0.013-0.023l-0.021-0.047    c-0.132-0.246-0.242-0.475-0.378-0.696c-0.063-0.108-0.123-0.214-0.183-0.314c-0.025-0.047-0.051-0.094-0.081-0.141    c-0.025-0.046-0.055-0.091-0.08-0.133c-0.11-0.176-0.208-0.333-0.293-0.471c-0.094-0.134-0.166-0.25-0.229-0.346    C46.904,19.354,46.841,19.252,46.841,19.252z"/>
	</g>
	<g>
		<path fill="#0033F6" d="M45.732,32.699c0,0-0.085,0.076-0.229,0.221c-0.148,0.148-0.356,0.369-0.607,0.658    c-0.25,0.288-0.543,0.645-0.857,1.069c-0.157,0.208-0.318,0.437-0.483,0.679c-0.17,0.242-0.336,0.501-0.506,0.773    c-0.344,0.543-0.688,1.146-1.027,1.795c-0.084,0.161-0.165,0.326-0.25,0.496c-0.085,0.166-0.166,0.336-0.246,0.51    c-0.161,0.348-0.318,0.705-0.476,1.07c-0.081,0.182-0.152,0.369-0.229,0.556c-0.072,0.187-0.148,0.378-0.221,0.569    c-0.067,0.19-0.14,0.386-0.212,0.576c-0.072,0.204-0.14,0.408-0.212,0.615c-0.293,0.824-0.624,1.66-0.989,2.484    c-0.738,1.643-1.639,3.229-2.657,4.609c-0.505,0.688-1.044,1.324-1.596,1.889c-0.272,0.289-0.552,0.552-0.828,0.798    c-0.275,0.251-0.556,0.479-0.828,0.688c-0.543,0.424-1.078,0.764-1.565,1.035c-0.493,0.268-0.935,0.467-1.308,0.607    c-0.371,0.144-0.671,0.229-0.875,0.283c-0.104,0.026-0.182,0.043-0.235,0.056c-0.053,0.013-0.08,0.017-0.08,0.017    s0.087-0.072,0.248-0.203c0.161-0.136,0.396-0.327,0.684-0.582c0.284-0.254,0.619-0.572,0.984-0.946    c0.369-0.374,0.76-0.806,1.167-1.294c0.2-0.246,0.403-0.506,0.616-0.773c0.203-0.271,0.411-0.556,0.624-0.854    c0.411-0.59,0.832-1.23,1.243-1.905c0.823-1.35,1.622-2.844,2.373-4.38c0.378-0.77,0.743-1.545,1.107-2.318    c0.191-0.395,0.374-0.789,0.561-1.18c0.191-0.395,0.399-0.777,0.607-1.146c0.208-0.373,0.424-0.734,0.649-1.078    c0.11-0.17,0.221-0.344,0.335-0.505c0.114-0.17,0.229-0.327,0.344-0.483c0.463-0.633,0.938-1.197,1.405-1.694    c0.233-0.246,0.463-0.479,0.688-0.692c0.225-0.211,0.45-0.402,0.658-0.581c0.424-0.353,0.811-0.632,1.142-0.845    c0.331-0.217,0.603-0.365,0.789-0.458C45.627,32.741,45.732,32.699,45.732,32.699z"/>
	</g>
</g>
<g id="red">
	<circle fill="#F9081B" cx="14.093" cy="15.688" r="4.33"/>
	<g>
		<path fill="#F9081B" d="M11.68,24.774c0,0,0.03,0.023,0.087,0.067c0.055,0.045,0.14,0.115,0.24,0.212    c0.206,0.195,0.484,0.514,0.771,0.966c0.289,0.45,0.579,1.034,0.847,1.725c0.268,0.694,0.509,1.495,0.715,2.378    c0.206,0.883,0.377,1.842,0.518,2.865c0.136,1.018,0.244,2.096,0.321,3.209c0.042,0.555,0.07,1.12,0.097,1.693    c0.013,0.284,0.026,0.572,0.039,0.861c0.008,0.284,0.017,0.573,0.023,0.861c0.006,0.141,0.01,0.297,0.017,0.43    c0.006,0.135,0.013,0.267,0.023,0.406c0.019,0.276,0.042,0.553,0.066,0.832c0.051,0.557,0.125,1.108,0.221,1.66    c0.087,0.552,0.197,1.1,0.327,1.643c0.134,0.539,0.272,1.074,0.441,1.601c0.081,0.263,0.17,0.518,0.261,0.776    c0.089,0.255,0.185,0.51,0.282,0.76c0.2,0.501,0.418,0.984,0.643,1.456c0.46,0.938,0.974,1.809,1.532,2.589    c0.556,0.785,1.148,1.478,1.747,2.072c0.598,0.598,1.199,1.095,1.766,1.502c0.567,0.404,1.093,0.723,1.541,0.964    c0.45,0.242,0.817,0.411,1.069,0.526c0.255,0.11,0.391,0.17,0.391,0.17s-0.036,0-0.108-0.009    c-0.072-0.009-0.178-0.013-0.318-0.034c-0.278-0.033-0.686-0.102-1.197-0.229c-0.514-0.127-1.129-0.327-1.811-0.629    c-0.681-0.305-1.424-0.717-2.177-1.256c-0.753-0.543-1.513-1.215-2.229-2.004c-0.717-0.793-1.386-1.706-1.976-2.708    c-0.297-0.501-0.566-1.027-0.819-1.57c-0.254-0.544-0.484-1.104-0.686-1.677c-0.412-1.15-0.713-2.352-0.921-3.57    c-0.098-0.611-0.174-1.227-0.223-1.838c-0.023-0.305-0.045-0.615-0.053-0.921c-0.004-0.148-0.006-0.306-0.011-0.462    c-0.002-0.162,0-0.298,0-0.441c0.009-1.155,0.019-2.293,0.03-3.393c0.004-1.09,0.006-2.143-0.013-3.141s-0.053-1.936-0.115-2.801    c-0.059-0.862-0.146-1.649-0.259-2.34c-0.115-0.691-0.257-1.284-0.414-1.764c-0.157-0.478-0.327-0.84-0.462-1.08    c-0.068-0.119-0.121-0.208-0.162-0.27C11.701,24.806,11.68,24.774,11.68,24.774z"/>
	</g>
	<g>
		<path fill="#F9081B" d="M25.45,29.333c0,0-0.469-0.056-1.273-0.193c-0.202-0.034-0.424-0.074-0.667-0.118    c-0.059-0.012-0.121-0.024-0.185-0.035c-0.03-0.006-0.062-0.013-0.093-0.019l-0.049-0.008l-0.023-0.004l-0.006-0.002    c-0.011-0.002,0.011,0.004-0.023-0.006l-0.011-0.004c-0.129-0.03-0.263-0.063-0.401-0.098c-0.276-0.063-0.564-0.144-0.872-0.221    c-0.155-0.038-0.312-0.083-0.474-0.125c-0.079-0.023-0.161-0.045-0.242-0.068c-0.042-0.01-0.083-0.021-0.125-0.031l-0.03-0.009    l-0.017-0.004l-0.006-0.002c0.002,0-0.058-0.023-0.036-0.015l-0.062-0.019c-0.331-0.106-0.673-0.226-1.027-0.344    c-0.178-0.059-0.359-0.123-0.539-0.187c-0.091-0.031-0.185-0.063-0.276-0.097l-0.14-0.049l-0.008-0.002    c-0.017-0.008,0.029,0.015-0.042-0.019l-0.017-0.009l-0.036-0.013l-0.068-0.027c-0.369-0.149-0.743-0.313-1.127-0.472    c-0.193-0.081-0.389-0.163-0.582-0.25l-0.074-0.032l-0.017-0.006l-0.008-0.004c0.004,0.002-0.087-0.046-0.051-0.027l-0.036-0.017    l-0.144-0.072c-0.096-0.047-0.193-0.096-0.289-0.145c-0.391-0.189-0.781-0.393-1.176-0.597l-0.074-0.038l-0.036-0.019    l-0.019-0.008l-0.011-0.006c0.04,0.025-0.064-0.039-0.058-0.032l-0.144-0.085c-0.096-0.058-0.193-0.112-0.291-0.17    c-0.193-0.117-0.386-0.231-0.582-0.35c-0.193-0.117-0.388-0.234-0.585-0.353l-0.036-0.021l-0.087-0.06l-0.072-0.049l-0.142-0.096    l-0.28-0.199c-0.189-0.132-0.375-0.263-0.564-0.397l-0.282-0.197l-0.072-0.051l-0.034-0.025l-0.076-0.055l-0.136-0.106    l-0.542-0.431c-0.189-0.159-0.375-0.318-0.56-0.478l-0.07-0.06l-0.036-0.03l-0.049-0.044l-0.127-0.115l-0.249-0.235    c-0.085-0.081-0.166-0.151-0.252-0.24l-0.259-0.264l-0.257-0.261l-0.032-0.034l-0.045-0.044l-0.055-0.063L8.967,21.24    c-0.15-0.172-0.293-0.324-0.45-0.522c-0.079-0.095-0.155-0.189-0.231-0.285l-0.112-0.14l-0.044-0.055l-0.025-0.034l-0.049-0.066    c-0.066-0.089-0.13-0.176-0.191-0.265L7.768,19.74l-0.046-0.066l-0.049-0.076c-0.066-0.102-0.131-0.202-0.197-0.304l-0.096-0.15    l-0.049-0.074l-0.023-0.038c0,0.002-0.032-0.049-0.021-0.032l-0.004-0.008l-0.009-0.017c-0.106-0.187-0.206-0.367-0.306-0.556    c-0.106-0.223-0.212-0.446-0.316-0.665c-0.072-0.191-0.144-0.378-0.212-0.567c-0.034-0.11-0.066-0.221-0.1-0.331    c-0.015-0.053-0.032-0.108-0.049-0.161c-0.018-0.066-0.036-0.132-0.056-0.195C6.2,16.306,6.16,16.13,6.13,15.933    c-0.01-0.11-0.023-0.221-0.036-0.329c-0.006-0.055-0.01-0.108-0.017-0.164l-0.006-0.079l-0.009-0.076v-0.034    c0.002-0.089,0.002-0.178,0.004-0.268c0-0.044,0-0.089,0-0.131c0.002-0.044,0.002-0.085,0.008-0.142    c0.011-0.104,0.021-0.208,0.032-0.308c0.006-0.051,0.01-0.102,0.017-0.151l0.009-0.074l0.002-0.019    c0.008-0.072,0.004-0.023,0.006-0.042v-0.006l0.008-0.032c0.041-0.163,0.074-0.316,0.121-0.478    c0.062-0.178,0.123-0.348,0.185-0.511l0.021-0.057l0.013-0.025l0.025-0.049c0.019-0.034,0.036-0.066,0.053-0.098    c0.034-0.063,0.068-0.127,0.102-0.191c0.017-0.029,0.032-0.059,0.053-0.093c0.021-0.032,0.042-0.066,0.063-0.1    c0.045-0.064,0.087-0.127,0.13-0.189c0.044-0.068,0.089-0.134,0.133-0.197c0.042-0.049,0.085-0.094,0.125-0.14    c0.085-0.091,0.159-0.178,0.242-0.261c0.089-0.085,0.178-0.161,0.259-0.233c0.04-0.036,0.078-0.072,0.119-0.106l0.034-0.03    l0.03-0.021c0.019-0.013,0.039-0.027,0.055-0.04c0.076-0.051,0.146-0.1,0.21-0.146c0.068-0.044,0.123-0.089,0.187-0.123    c0.06-0.034,0.115-0.063,0.166-0.091c0.195-0.108,0.299-0.161,0.299-0.161S8.7,10.826,8.562,10.994    c-0.07,0.083-0.152,0.18-0.244,0.314c-0.046,0.064-0.095,0.134-0.148,0.208c-0.013,0.02-0.027,0.036-0.04,0.056l-0.021,0.029    l-0.002,0.004c-0.009,0.006,0.006-0.006,0.004-0.004l-0.004,0.009l-0.009,0.015c-0.023,0.038-0.046,0.079-0.07,0.121    C7.979,11.828,7.93,11.913,7.876,12c-0.051,0.095-0.1,0.208-0.152,0.316c-0.026,0.055-0.053,0.113-0.081,0.169    c-0.011,0.018,0.013-0.017,0.009-0.013v0.007L7.647,12.49l-0.006,0.019l-0.015,0.041c-0.009,0.028-0.018,0.055-0.028,0.083    c-0.017,0.053-0.036,0.108-0.055,0.166c-0.011,0.027-0.019,0.055-0.03,0.083c-0.008,0.03-0.015,0.068-0.023,0.1    c-0.017,0.07-0.034,0.14-0.051,0.21c-0.008,0.036-0.017,0.072-0.025,0.108l-0.015,0.053l-0.006,0.027    c0.004-0.01-0.011,0.032,0.008-0.021v0.006l-0.002,0.013c-0.011,0.125-0.025,0.253-0.04,0.38    c-0.004,0.157-0.009,0.316-0.013,0.482v0.032l-0.002,0.006c0.002-0.013-0.002,0.041,0.004-0.025l0.002,0.013l0.007,0.051    l0.01,0.102c0.006,0.068,0.015,0.136,0.021,0.204c0,0.029,0.011,0.076,0.02,0.119c0.006,0.042,0.015,0.087,0.023,0.129    c0.015,0.087,0.032,0.176,0.046,0.265l0.006,0.034c-0.002-0.015,0.004,0.041-0.002-0.03l0.002,0.009l0.004,0.013l0.017,0.053    l0.032,0.108c0.021,0.07,0.042,0.142,0.064,0.214c0.063,0.174,0.127,0.35,0.193,0.531l0.004,0.008    c0.01,0.034-0.011-0.039-0.009-0.028l0.009,0.013l0.013,0.028l0.027,0.055l0.053,0.112c0.034,0.072,0.07,0.146,0.106,0.223    c0.096,0.17,0.191,0.351,0.287,0.529c0.015,0.03-0.013-0.03-0.008-0.021l0.004,0.006l0.009,0.013l0.019,0.028l0.036,0.057    l0.072,0.11c0.047,0.074,0.096,0.151,0.145,0.225c0.119,0.166,0.244,0.339,0.365,0.514c0.112,0.14,0.225,0.282,0.339,0.426    l0.044,0.058l0.055,0.062l0.106,0.121c0.072,0.083,0.144,0.166,0.214,0.25l0.053,0.062l0.028,0.032    c0.006,0.006-0.028-0.034-0.011-0.013l0.006,0.006l0.013,0.013l0.104,0.11c0.068,0.072,0.138,0.146,0.206,0.219    c0.127,0.142,0.303,0.305,0.46,0.462l0.119,0.119l0.06,0.06l0.015,0.017l0.008,0.006c0.015,0.015-0.013-0.013-0.006-0.006    l0.027,0.025l0.229,0.212l0.229,0.214c0.074,0.07,0.17,0.148,0.252,0.221l0.259,0.225l0.129,0.115l0.108,0.091    c0.166,0.136,0.331,0.274,0.497,0.41l0.545,0.424l0.136,0.108L13.17,22c-0.081-0.06-0.017-0.013-0.034-0.023l0.011,0.007    l0.034,0.025l0.07,0.049l0.28,0.204c0.187,0.136,0.371,0.272,0.558,0.405l0.278,0.202l0.225,0.17    c0.189,0.125,0.38,0.252,0.569,0.378c0.189,0.125,0.378,0.25,0.564,0.375c0.093,0.064,0.185,0.127,0.278,0.191l0.138,0.094    c0.013,0.008-0.085-0.051-0.041-0.023l0.011,0.006l0.017,0.011l0.036,0.021l0.07,0.044c0.38,0.231,0.756,0.46,1.121,0.694    c0.091,0.058,0.183,0.115,0.274,0.172l0.136,0.085l0.034,0.021c0.04,0.021-0.045-0.023-0.034-0.017l0.008,0.004l0.02,0.011    l0.068,0.04c0.187,0.102,0.367,0.208,0.547,0.314c0.361,0.212,0.715,0.411,1.055,0.619l0.064,0.039l0.032,0.019l0.015,0.008    c-0.068-0.03-0.013-0.004-0.025-0.01l0.006,0.004l0.129,0.07c0.087,0.046,0.172,0.093,0.257,0.138    c0.17,0.094,0.337,0.183,0.501,0.274c0.327,0.185,0.643,0.359,0.944,0.533l0.058,0.032c0.025,0.011-0.03-0.01-0.021-0.008    l0.009,0.004l0.013,0.009l0.029,0.015c0.039,0.02,0.077,0.038,0.115,0.06c0.074,0.038,0.149,0.076,0.223,0.114    c0.148,0.077,0.292,0.151,0.433,0.228c0.278,0.15,0.545,0.289,0.794,0.427c0.123,0.07,0.244,0.136,0.358,0.199l0.011,0.006    c-0.03-0.011-0.004-0.002-0.008-0.002l0.004,0.002l0.023,0.01l0.042,0.021c0.03,0.015,0.058,0.03,0.087,0.045    c0.058,0.027,0.113,0.057,0.168,0.085c0.219,0.112,0.42,0.214,0.599,0.312C25.044,29.091,25.45,29.333,25.45,29.333z"/>
	</g>
</g>
<g id="yellow">
	<g>
		<path fill="#F9C81C" d="M10.929,9.569c0,0,0.123-0.067,0.352-0.195c0.115-0.062,0.255-0.142,0.431-0.218    c0.174-0.081,0.371-0.18,0.607-0.27c0.114-0.044,0.233-0.091,0.358-0.142c0.062-0.023,0.127-0.049,0.193-0.072    c0.068-0.023,0.136-0.047,0.208-0.072c0.142-0.047,0.291-0.096,0.448-0.145l0.057-0.019l0.03-0.011l0.015-0.004l0.008-0.002    c0,0,0.019-0.004,0.015-0.002c0.039-0.013,0.077-0.023,0.117-0.034c0.079-0.021,0.159-0.044,0.24-0.066    c0.166-0.047,0.329-0.096,0.509-0.136c0.183-0.041,0.367-0.081,0.56-0.123c0.047-0.013,0.096-0.023,0.145-0.034    c0.051-0.008,0.102-0.017,0.153-0.027c0.095-0.017,0.191-0.034,0.289-0.051c0.199-0.034,0.393-0.075,0.609-0.104    c0.212-0.032,0.429-0.06,0.652-0.087c0.225-0.021,0.452-0.04,0.683-0.062c0.223-0.021,0.45-0.036,0.682-0.053    c0.114-0.009,0.231-0.02,0.348-0.028c0.057-0.004,0.117-0.008,0.176-0.013c0.074,0,0.148-0.002,0.223-0.004    C19.511,7.585,20,7.587,20.498,7.581h0.187l0.096-0.002l0.144,0.008c0.125,0.006,0.25,0.013,0.378,0.019    c0.254,0.015,0.511,0.03,0.771,0.044c0.257,0.015,0.518,0.026,0.781,0.044c0.278,0.032,0.558,0.066,0.84,0.1    c0.263,0.03,0.531,0.062,0.798,0.093c0.134,0.017,0.267,0.034,0.401,0.051l0.051,0.007l0.025,0.002l0.013,0.002    c0.025,0.004-0.042-0.006,0.062,0.011l0.1,0.017l0.202,0.036c0.535,0.098,1.074,0.187,1.615,0.291l0.202,0.04l0.074,0.015    l0.025,0.006l0.051,0.013l0.1,0.023l0.403,0.096l0.805,0.19l0.853,0.215c0.263,0.078,0.528,0.157,0.791,0.235    c0.264,0.079,0.526,0.155,0.786,0.238c0.131,0.041,0.263,0.083,0.395,0.123l0.195,0.06l0.072,0.023l0.021,0.009l0.051,0.017    l0.094,0.034c0.255,0.094,0.51,0.185,0.765,0.276c0.254,0.095,0.505,0.188,0.755,0.282c0.123,0.046,0.246,0.093,0.369,0.14    l0.094,0.034c0.094,0.034,0.034,0.013,0.055,0.021l0.014,0.006l0.025,0.009l0.042,0.019l0.183,0.079    c0.242,0.102,0.479,0.208,0.718,0.312c0.237,0.106,0.471,0.208,0.704,0.313c0.119,0.051,0.233,0.102,0.348,0.152l0.014,0.004    c0.08,0.034,0.025,0.013,0.046,0.021l0.021,0.011l0.043,0.021l0.084,0.042l0.166,0.087c0.445,0.227,0.883,0.446,1.303,0.667    c0.119,0.06,0.233,0.121,0.349,0.181c0.102,0.059,0.203,0.118,0.301,0.176c0.2,0.119,0.399,0.231,0.591,0.348    c0.19,0.115,0.377,0.227,0.564,0.339c0.093,0.056,0.183,0.11,0.275,0.166l0.068,0.04c-0.005-0.002,0.06,0.032,0.038,0.021    l0.004,0.006l0.018,0.011l0.033,0.021c0.043,0.029,0.085,0.06,0.128,0.089c0.344,0.235,0.671,0.461,0.984,0.677    c0.157,0.108,0.306,0.214,0.454,0.318l0.025,0.019c-0.017-0.011,0.034,0.019,0.03,0.019l0.008,0.004l0.014,0.011l0.051,0.04    c0.033,0.027,0.072,0.055,0.105,0.083c0.068,0.053,0.136,0.108,0.2,0.161c0.263,0.212,0.514,0.407,0.738,0.594    c0.114,0.093,0.221,0.183,0.327,0.27c0.029,0.023,0.059,0.049,0.089,0.072c0.021,0.021,0.047,0.044,0.067,0.066    c0.047,0.044,0.094,0.087,0.141,0.129c0.709,0.667,1.1,1.068,1.1,1.068s-0.506-0.24-1.367-0.696    c-0.055-0.03-0.11-0.059-0.165-0.089c-0.03-0.015-0.06-0.029-0.085-0.044l-0.013-0.007l-0.005-0.002    c-0.013-0.009,0.013,0.006,0.005,0.004l-0.021-0.011l-0.047-0.021c-0.119-0.058-0.246-0.117-0.378-0.181    c-0.268-0.123-0.552-0.265-0.857-0.412c-0.076-0.039-0.152-0.077-0.229-0.115c-0.042-0.019-0.08-0.038-0.118-0.057l-0.06-0.032    l-0.018-0.007l-0.004-0.004c-0.009-0.004,0.038,0.023,0.013,0.011l-0.029-0.013c-0.166-0.072-0.336-0.146-0.51-0.223    c-0.344-0.155-0.709-0.316-1.087-0.486c-0.051-0.021-0.098-0.045-0.144-0.066l-0.038-0.015l-0.018-0.008l-0.009-0.004    c-0.029-0.015,0.03,0.015,0.021,0.011l-0.072-0.029c-0.102-0.041-0.199-0.081-0.301-0.121c-0.2-0.081-0.403-0.164-0.611-0.249    c-0.208-0.083-0.416-0.172-0.629-0.261c-0.105-0.044-0.216-0.089-0.322-0.136c-0.013-0.004,0.06,0.03,0.025,0.013l-0.013-0.004    l-0.017-0.007l-0.043-0.015l-0.085-0.032c-0.055-0.019-0.11-0.041-0.165-0.06c-0.445-0.164-0.9-0.341-1.367-0.516l-0.178-0.068    l-0.09-0.032l-0.042-0.017l-0.021-0.009c0.013,0.007-0.047-0.019,0.025,0.013l-0.008-0.004c-0.119-0.04-0.242-0.083-0.361-0.123    c-0.242-0.083-0.483-0.166-0.729-0.25c-0.242-0.083-0.493-0.166-0.739-0.254l-0.187-0.066l-0.047-0.017l-0.021-0.009l-0.013-0.004    c0.018,0.006-0.051-0.02,0.034,0.013l-0.098-0.03c-0.127-0.038-0.255-0.079-0.382-0.117c-0.255-0.079-0.51-0.157-0.769-0.235    c-0.254-0.083-0.514-0.166-0.772-0.249l-0.098-0.03l-0.047-0.015l-0.025-0.009c-0.046-0.015,0.052,0.015,0.034,0.011l-0.009-0.002    l-0.199-0.053c-0.132-0.036-0.263-0.072-0.395-0.108c-0.266-0.07-0.528-0.146-0.794-0.221c-0.266-0.077-0.53-0.151-0.793-0.228    l-0.758-0.178l-0.802-0.202l-0.401-0.1l-0.102-0.025l-0.049-0.013l-0.025-0.007c0.017,0.005-0.057-0.013,0.036,0.009l-0.013-0.002    l-0.202-0.042c-0.539-0.106-1.074-0.227-1.606-0.34l-0.197-0.044l-0.1-0.021c0.096,0.018,0.019,0.004,0.036,0.007l-0.013-0.002    l-0.023-0.004L24.573,10.1c-0.134-0.021-0.268-0.044-0.399-0.068c-0.266-0.047-0.529-0.093-0.792-0.142    c-0.131-0.023-0.261-0.047-0.393-0.07l-0.195-0.034l-0.098-0.017l-0.049-0.01l-0.023-0.005l-0.013-0.002    c-0.015-0.002,0.089,0.011,0.038,0.004c-0.261-0.032-0.518-0.072-0.775-0.106c-0.257-0.038-0.511-0.074-0.764-0.108    c-0.125-0.019-0.25-0.036-0.376-0.055L20.689,9.48l-0.023-0.004c0.095,0.006,0.019,0.002,0.038,0.002h-0.013l-0.093-0.011    l-0.187-0.019c-0.495-0.051-0.98-0.096-1.454-0.151l-0.089-0.011l-0.042-0.004l-0.023-0.002c0.089,0.002,0.02,0,0.036,0h-0.013    c-0.057-0.005-0.117-0.007-0.176-0.011c-0.117-0.007-0.234-0.013-0.348-0.02c-0.231-0.013-0.458-0.025-0.681-0.042    c-0.215-0.015-0.425-0.028-0.633-0.043c-0.208-0.004-0.412-0.008-0.613-0.017c-0.197-0.011-0.407-0.004-0.603-0.006    c-0.1,0-0.2,0-0.295,0c-0.046,0-0.091,0-0.136-0.002c-0.046,0.002-0.093,0.002-0.138,0.004c-0.183,0.002-0.361,0.006-0.535,0.008    c-0.174,0.002-0.352,0.02-0.52,0.026c-0.084,0.004-0.167,0.008-0.25,0.013c-0.041,0.002-0.081,0.004-0.121,0.004    c-0.009,0.002,0.004,0,0,0h-0.006l-0.015,0.002L13.726,9.2l-0.058,0.004c-0.153,0.013-0.301,0.025-0.441,0.036    c-0.072,0.006-0.142,0.01-0.212,0.017c-0.068,0.008-0.138,0.017-0.204,0.025c-0.134,0.015-0.261,0.029-0.382,0.042    C11.962,9.389,11.58,9.444,11.326,9.5C11.066,9.544,10.929,9.569,10.929,9.569z"/>
	</g>
	<path fill="#F9C81C" d="M35.745,4.33c0,2.392-1.94,4.33-4.33,4.33c-2.392,0-4.331-1.938-4.331-4.33c0-2.39,1.939-4.33,4.331-4.33   C33.805,0,35.745,1.939,35.745,4.33z"/>
</g>
</svg>
