<?xml version="1.0" encoding="utf-8"?>
<!-- Generator: Adobe Illustrator 17.0.0, SVG Export Plug-In . SVG Version: 6.00 Build 0)  -->
<!DOCTYPE svg PUBLIC "-//W3C//DTD SVG 1.1//EN" "http://www.w3.org/Graphics/SVG/1.1/DTD/svg11.dtd">
<svg version="1.1" id="Layer_1" xmlns="http://www.w3.org/2000/svg" xmlns:xlink="http://www.w3.org/1999/xlink" x="0px" y="0px"
	 width="72px" height="72px" viewBox="0 0 72 72" enable-background="new 0 0 72 72" xml:space="preserve">
<g>
	<g>
		<circle fill="#F9081B" cx="18.053" cy="20.039" r="5.394"/>
		<circle fill="#0033F6" cx="54.849" cy="30.486" r="5.393"/>
		<circle fill="#F9C81C" cx="39.628" cy="5.892" r="5.394"/>
		<path fill="#F9081B" d="M32.197,37.034c0,0-0.584-0.065-1.588-0.235c-0.252-0.04-0.528-0.091-0.829-0.146
			c-0.075-0.014-0.152-0.027-0.231-0.042c-0.039-0.007-0.078-0.015-0.118-0.023l-0.06-0.012l-0.03-0.006l-0.008-0.001
			c-0.012-0.004,0.015,0.006-0.028-0.009l-0.015-0.004c-0.16-0.039-0.327-0.079-0.498-0.12c-0.344-0.081-0.706-0.178-1.09-0.274
			c-0.192-0.048-0.387-0.101-0.587-0.155c-0.1-0.027-0.201-0.054-0.304-0.082c-0.051-0.014-0.103-0.028-0.154-0.042l-0.039-0.01
			l-0.019-0.005l-0.01-0.003c0.004,0.002-0.073-0.029-0.045-0.017l-0.077-0.025c-0.413-0.132-0.838-0.279-1.281-0.425
			c-0.222-0.073-0.445-0.152-0.672-0.231c-0.114-0.04-0.228-0.08-0.343-0.12l-0.173-0.061l-0.011-0.004
			c-0.023-0.011,0.037,0.018-0.055-0.025l-0.021-0.009l-0.043-0.017l-0.087-0.033c-0.46-0.183-0.926-0.386-1.405-0.585
			c-0.24-0.1-0.482-0.202-0.724-0.309l-0.091-0.04l-0.023-0.01l-0.011-0.005c0.008,0.005-0.108-0.057-0.065-0.034l-0.045-0.022
			l-0.179-0.089c-0.12-0.059-0.24-0.119-0.361-0.179c-0.485-0.237-0.971-0.488-1.464-0.742l-0.093-0.048l-0.046-0.024L19.251,32.8
			l-0.012-0.006c0.051,0.031-0.082-0.048-0.073-0.043l-0.18-0.105c-0.12-0.07-0.241-0.14-0.362-0.211
			c-0.24-0.144-0.482-0.289-0.724-0.434c-0.242-0.146-0.485-0.292-0.729-0.439l-0.046-0.028l-0.111-0.074l-0.088-0.06l-0.177-0.121
			l-0.351-0.246c-0.234-0.165-0.468-0.33-0.703-0.495l-0.352-0.248l-0.088-0.062l-0.043-0.029l-0.095-0.071l-0.17-0.132
			l-0.674-0.538c-0.233-0.198-0.466-0.396-0.698-0.594l-0.087-0.074l-0.043-0.037l-0.062-0.055l-0.158-0.145l-0.312-0.293
			c-0.105-0.101-0.204-0.188-0.313-0.3l-0.323-0.327l-0.321-0.326l-0.04-0.041l-0.054-0.058l-0.071-0.078l-0.141-0.156
			c-0.187-0.216-0.364-0.404-0.561-0.653c-0.096-0.118-0.192-0.236-0.287-0.353l-0.142-0.176l-0.056-0.07l-0.03-0.042l-0.061-0.083
			c-0.081-0.11-0.161-0.22-0.239-0.332l-0.118-0.166l-0.059-0.083l-0.061-0.094c-0.082-0.127-0.163-0.253-0.244-0.379l-0.12-0.188
			l-0.06-0.094l-0.03-0.047c0.001,0.002-0.04-0.063-0.025-0.04l-0.006-0.011L9.539,24.14c-0.13-0.232-0.256-0.458-0.379-0.692
			c-0.133-0.28-0.264-0.558-0.394-0.832c-0.09-0.238-0.18-0.47-0.264-0.706c-0.042-0.139-0.083-0.276-0.125-0.413
			c-0.043-0.15-0.087-0.299-0.129-0.447c-0.044-0.24-0.094-0.461-0.131-0.706c-0.015-0.139-0.03-0.276-0.045-0.413
			c-0.007-0.068-0.014-0.135-0.02-0.202l-0.01-0.1l-0.009-0.094v-0.042c0.001-0.113,0.003-0.224,0.004-0.334
			c0.001-0.055,0.001-0.11,0.002-0.165c0.001-0.055,0.001-0.106,0.01-0.176c0.014-0.13,0.027-0.259,0.04-0.386
			c0.007-0.063,0.014-0.126,0.022-0.188l0.011-0.093l0.003-0.023c0.01-0.092,0.004-0.031,0.007-0.054l0.002-0.009l0.009-0.038
			c0.052-0.203,0.093-0.393,0.153-0.594c0.077-0.223,0.155-0.437,0.231-0.641l0.027-0.072l0.016-0.031l0.032-0.061
			c0.022-0.041,0.043-0.081,0.064-0.122c0.043-0.08,0.086-0.159,0.128-0.236c0.022-0.039,0.04-0.076,0.065-0.117
			c0.028-0.042,0.055-0.083,0.082-0.124c0.054-0.081,0.108-0.16,0.16-0.238c0.057-0.083,0.113-0.165,0.168-0.246
			c0.054-0.059,0.106-0.116,0.158-0.173c0.105-0.113,0.198-0.221,0.302-0.325c0.112-0.105,0.221-0.201,0.323-0.291
			c0.051-0.045,0.1-0.088,0.148-0.13l0.044-0.039l0.036-0.026c0.024-0.017,0.047-0.034,0.071-0.05
			c0.094-0.065,0.181-0.125,0.263-0.181c0.084-0.055,0.153-0.111,0.231-0.153c0.076-0.042,0.145-0.08,0.207-0.114
			c0.246-0.134,0.375-0.199,0.375-0.199s-0.092,0.113-0.264,0.325c-0.086,0.103-0.19,0.224-0.302,0.391
			c-0.057,0.081-0.119,0.168-0.185,0.26c-0.017,0.023-0.034,0.046-0.051,0.07L10.6,14.951l-0.003,0.005
			c-0.009,0.009,0.008-0.008,0.005-0.004l-0.005,0.009l-0.011,0.019c-0.028,0.049-0.057,0.1-0.087,0.152
			c-0.059,0.103-0.119,0.211-0.185,0.319c-0.062,0.118-0.123,0.257-0.189,0.394c-0.033,0.069-0.066,0.14-0.1,0.212
			c-0.014,0.022,0.015-0.022,0.011-0.015l-0.002,0.006l-0.004,0.013l-0.008,0.025l-0.017,0.051
			c-0.011,0.034-0.022,0.068-0.034,0.102c-0.023,0.067-0.046,0.136-0.069,0.205c-0.012,0.034-0.024,0.069-0.036,0.103
			c-0.011,0.037-0.02,0.083-0.03,0.125c-0.02,0.086-0.04,0.173-0.061,0.262c-0.011,0.044-0.022,0.089-0.033,0.133l-0.017,0.067
			l-0.008,0.034c0.005-0.013-0.014,0.041,0.01-0.027l0.001,0.007l-0.001,0.015c-0.014,0.157-0.03,0.314-0.049,0.471
			c-0.005,0.196-0.01,0.396-0.015,0.601l-0.001,0.039v0.01c0.002-0.017-0.005,0.051,0.005-0.035l0.002,0.016l0.008,0.063
			l0.015,0.126c0.008,0.084,0.016,0.169,0.025,0.254c0.001,0.038,0.013,0.094,0.024,0.148c0.01,0.054,0.02,0.108,0.03,0.162
			c0.02,0.109,0.039,0.218,0.059,0.329l0.008,0.042c-0.002-0.017,0.006,0.053-0.003-0.036l0.003,0.008l0.005,0.017l0.021,0.066
			l0.041,0.133c0.026,0.088,0.052,0.177,0.079,0.267c0.08,0.216,0.161,0.436,0.243,0.66l0.004,0.011
			c0.013,0.043-0.014-0.047-0.01-0.035l0.008,0.017l0.017,0.034l0.034,0.068l0.067,0.137c0.044,0.091,0.087,0.184,0.132,0.276
			c0.12,0.213,0.24,0.436,0.36,0.658c0.018,0.037-0.018-0.039-0.012-0.028l0.006,0.009l0.011,0.017l0.023,0.034l0.045,0.069
			L11,21.911c0.059,0.092,0.119,0.185,0.179,0.279c0.149,0.206,0.305,0.422,0.455,0.639c0.14,0.175,0.281,0.351,0.424,0.529
			l0.056,0.07l0.067,0.076l0.134,0.153c0.09,0.102,0.179,0.205,0.267,0.31l0.067,0.078l0.033,0.039
			c0.007,0.009-0.035-0.043-0.013-0.017l0.008,0.008l0.016,0.017l0.128,0.136c0.085,0.091,0.171,0.181,0.257,0.272
			c0.158,0.177,0.378,0.381,0.573,0.574l0.148,0.149l0.074,0.075l0.019,0.019l0.009,0.009c0.019,0.02-0.016-0.016-0.009-0.01
			l0.036,0.033l0.285,0.264l0.285,0.266c0.093,0.088,0.211,0.184,0.315,0.276l0.323,0.28l0.16,0.142l0.134,0.111
			c0.206,0.17,0.412,0.341,0.618,0.511l0.679,0.527l0.168,0.134l0.021,0.017c-0.1-0.075-0.022-0.016-0.041-0.031l0.011,0.008
			l0.044,0.032l0.087,0.063l0.348,0.253c0.232,0.169,0.464,0.337,0.695,0.505l0.347,0.252l0.278,0.209
			c0.237,0.158,0.474,0.315,0.709,0.471c0.235,0.157,0.469,0.313,0.703,0.469c0.116,0.079,0.231,0.158,0.346,0.237l0.172,0.118
			c0.017,0.01-0.108-0.064-0.05-0.029l0.011,0.007l0.022,0.014l0.044,0.027l0.089,0.054c0.473,0.289,0.941,0.574,1.395,0.865
			c0.114,0.072,0.227,0.144,0.34,0.215l0.169,0.107l0.042,0.027c0.051,0.027-0.058-0.03-0.043-0.022l0.011,0.006l0.022,0.012
			l0.087,0.049c0.231,0.129,0.457,0.262,0.681,0.393c0.447,0.264,0.889,0.515,1.311,0.773l0.079,0.048l0.04,0.024l0.02,0.012
			c-0.085-0.04-0.018-0.008-0.034-0.015l0.01,0.006l0.161,0.088c0.107,0.058,0.214,0.116,0.319,0.173
			c0.211,0.115,0.42,0.227,0.623,0.342c0.406,0.23,0.801,0.446,1.176,0.664l0.07,0.041c0.034,0.015-0.037-0.014-0.026-0.01
			l0.009,0.005l0.018,0.009l0.036,0.019c0.048,0.025,0.095,0.049,0.142,0.074c0.094,0.049,0.187,0.097,0.279,0.145
			c0.184,0.096,0.364,0.188,0.538,0.283c0.348,0.189,0.68,0.362,0.988,0.535c0.154,0.086,0.304,0.169,0.448,0.249l0.014,0.008
			c-0.038-0.013-0.007-0.002-0.013-0.004l0.007,0.003l0.027,0.014l0.055,0.027c0.036,0.018,0.072,0.036,0.108,0.054
			c0.071,0.037,0.14,0.072,0.208,0.108c0.272,0.141,0.522,0.268,0.747,0.39C31.694,36.73,32.197,37.034,32.197,37.034z"/>
		<path fill="#0033F6" d="M58.841,24.479c0,0,0.123,0.087,0.352,0.25c0.114,0.082,0.254,0.184,0.417,0.307
			c0.16,0.127,0.341,0.279,0.545,0.451c0.051,0.043,0.104,0.087,0.157,0.133c0.016,0.014,0.022,0.016,0.046,0.041l0.039,0.036
			c0.026,0.024,0.051,0.049,0.078,0.073c0.105,0.099,0.214,0.203,0.328,0.311c0.057,0.054,0.115,0.109,0.175,0.165
			c0.059,0.057,0.116,0.124,0.176,0.188c0.12,0.13,0.244,0.266,0.373,0.405l0.049,0.053l0.024,0.027l0.006,0.007
			c0-0.001,0.022,0.032,0.015,0.021l0.011,0.013c0.029,0.036,0.059,0.071,0.089,0.107c0.059,0.073,0.118,0.146,0.179,0.221
			c0.121,0.15,0.246,0.297,0.37,0.484c0.063,0.09,0.126,0.182,0.19,0.274c0.032,0.047,0.064,0.094,0.096,0.141l0.048,0.072
			l0.006,0.009c0.008,0.015-0.008-0.02,0.018,0.035l0.01,0.017l0.02,0.034c0.109,0.183,0.22,0.37,0.333,0.562
			c0.113,0.212,0.22,0.454,0.331,0.691l0.021,0.045l0.01,0.023l0.005,0.011c-0.001-0.004,0.025,0.08,0.016,0.049l0.031,0.082
			c0.021,0.055,0.042,0.109,0.063,0.164c0.042,0.11,0.084,0.221,0.127,0.333c0.022,0.051,0.041,0.122,0.06,0.192
			s0.037,0.14,0.056,0.21c0.036,0.142,0.072,0.286,0.108,0.43c0.022,0.14,0.045,0.281,0.067,0.422l0.03,0.186l0.015,0.094
			l0.008,0.118c0.009,0.161,0.018,0.324,0.022,0.488l0.003,0.124l0.001,0.062v0.016c0.006-0.05-0.008,0.086-0.007,0.076
			l-0.002,0.024l-0.013,0.194c-0.009,0.13-0.018,0.261-0.027,0.392c-0.025,0.161-0.059,0.338-0.092,0.509l-0.053,0.26l-0.007,0.033
			l-0.003,0.016c-0.012,0.036,0.022-0.057-0.027,0.084l-0.015,0.048l-0.03,0.096c-0.041,0.128-0.083,0.257-0.124,0.387
			c-0.014,0.057-0.058,0.148-0.094,0.23l-0.114,0.25l-0.119,0.25l-0.03,0.063l-0.015,0.031c0.03-0.046-0.049,0.08-0.043,0.071
			l-0.007,0.011L63.09,35.77c-0.071,0.119-0.142,0.238-0.214,0.358c-0.019,0.03-0.034,0.059-0.055,0.091l-0.081,0.11l-0.167,0.219
			L62.4,36.769l-0.087,0.109l-0.119,0.127c-0.097,0.103-0.195,0.206-0.292,0.31c-0.082,0.096-0.232,0.225-0.366,0.343l-0.205,0.179
			l-0.104,0.089l-0.052,0.045l-0.026,0.022c0.032-0.023-0.059,0.044-0.053,0.039l-0.011,0.008c-0.115,0.087-0.233,0.17-0.349,0.255
			l-0.176,0.128l-0.045,0.032l-0.056,0.035l-0.112,0.07c-0.15,0.092-0.3,0.184-0.45,0.277l-0.113,0.069l-0.028,0.017
			c0.031-0.015-0.058,0.031-0.053,0.028l-0.012,0.006l-0.048,0.025l-0.194,0.102l-0.389,0.204c-0.139,0.068-0.309,0.137-0.463,0.205
			l-0.237,0.101l-0.119,0.05l-0.059,0.025l-0.03,0.013l-0.057,0.021l-0.415,0.152c-0.142,0.051-0.269,0.102-0.423,0.152
			l-0.478,0.148l-0.24,0.071l-0.12,0.035l-0.087,0.024l-0.054,0.013l-0.43,0.104l-0.432,0.103l-0.475,0.095l-0.474,0.093
			l-0.087,0.016l-0.054,0.008l-0.109,0.015L54,40.762c-0.293,0.039-0.568,0.084-0.889,0.113c-0.155,0.016-0.31,0.032-0.465,0.048
			l-0.231,0.024l-0.138,0.013l-0.108,0.007c-0.288,0.015-0.574,0.03-0.858,0.045c-0.294,0.011-0.6,0.015-0.896,0.022l-0.223,0.005
			l-0.149,0.002l-0.105-0.004c-0.139-0.006-0.278-0.011-0.417-0.017c-0.553-0.025-1.097-0.039-1.63-0.073l-0.1-0.006
			c0.056,0.001-0.09-0.002-0.08-0.002l-0.012-0.001l-0.025-0.003l-0.049-0.006l-0.197-0.022c-0.131-0.015-0.261-0.029-0.391-0.044
			c-0.259-0.029-0.515-0.056-0.767-0.09c-0.252-0.032-0.501-0.063-0.746-0.094l-0.183-0.023c0.008,0-0.107-0.008-0.064-0.006
			l-0.011-0.002l-0.023-0.004l-0.045-0.008l-0.09-0.016c-0.12-0.022-0.238-0.045-0.356-0.067c-0.47-0.092-0.925-0.181-1.361-0.266
			c-0.23-0.048-0.455-0.095-0.675-0.141c-0.206-0.054-0.408-0.104-0.604-0.159c-0.392-0.108-0.764-0.205-1.113-0.307
			c-0.174-0.05-0.343-0.099-0.506-0.145c-0.081-0.023-0.161-0.046-0.24-0.069l-0.007-0.002c0.002,0-0.047-0.009-0.029-0.006
			l-0.014-0.005l-0.029-0.01l-0.057-0.02c-0.038-0.013-0.075-0.027-0.112-0.04c-0.296-0.105-0.569-0.2-0.814-0.292
			c-0.981-0.359-1.536-0.598-1.536-0.598s0.603-0.011,1.648,0.029c0.262,0.008,0.55,0.023,0.864,0.038
			c0.039,0.002,0.079,0.004,0.119,0.006l0.06,0.003l0.03,0.001l0.015,0.001c0.022,0.004-0.022-0.004-0.014-0.004h0.008
			c0.082,0.001,0.165,0.002,0.249,0.003c0.169,0.002,0.345,0.005,0.526,0.007c0.363,0.004,0.747,0.019,1.153,0.028
			c0.203,0.004,0.411,0.014,0.623,0.023l0.04,0.002l0.02,0.001c0.011,0.001-0.062-0.008-0.026-0.004h0.01l0.081-0.001
			c0.054,0,0.108-0.001,0.162-0.001c0.109-0.001,0.219-0.002,0.33-0.002c0.444,0.002,0.907,0.004,1.386,0.006
			c0.12,0.001,0.24,0.003,0.362,0.004l0.099,0.005l0.046,0.001h0.023h0.011c0.051,0.004-0.056-0.004-0.041-0.004l0.184-0.006
			c0.247-0.008,0.498-0.016,0.752-0.024c0.254-0.01,0.512-0.013,0.772-0.018c0.13-0.002,0.261-0.005,0.393-0.007l0.198-0.004
			l0.05-0.001h0.025h0.012c0.019,0-0.119-0.003-0.055-0.002l0.1-0.007c0.532-0.043,1.075-0.068,1.628-0.104
			c0.138-0.008,0.277-0.017,0.416-0.025l0.105-0.006c-0.013,0,0.047-0.001-0.025,0l0.012-0.001l0.025-0.003l0.049-0.005l0.197-0.019
			c0.264-0.025,0.53-0.051,0.798-0.077c0.283-0.035,0.567-0.071,0.853-0.107l0.107-0.012l0.013-0.001
			c0.026-0.003-0.02,0.002-0.011,0.001l0.025-0.004l0.05-0.007l0.198-0.029c0.132-0.019,0.265-0.039,0.398-0.059
			c0.257-0.032,0.555-0.094,0.84-0.145l0.399-0.074l0.389-0.083l0.39-0.082l0.426-0.108l0.428-0.11l0.054-0.014
			c0.011-0.003-0.044,0.011-0.016,0.004l0.011-0.004l0.023-0.007l0.092-0.029l0.184-0.056l0.37-0.105
			c0.127-0.038,0.275-0.095,0.411-0.141l0.417-0.146l0.313-0.129c0.116-0.049,0.221-0.085,0.347-0.142l0.397-0.187l0.198-0.093
			l0.05-0.023l0.012-0.006c0.013-0.006-0.067,0.035-0.029,0.015l0.019-0.011l0.075-0.042l0.303-0.165l0.076-0.04l0.038-0.02
			l0.045-0.029l0.181-0.12c0.121-0.079,0.24-0.161,0.362-0.238l0.217-0.16c0.087-0.064,0.166-0.108,0.279-0.22
			c0.105-0.096,0.21-0.192,0.314-0.288l0.039-0.036l0.02-0.018l0.01-0.009c-0.086,0.089-0.02,0.021-0.038,0.039l0.048-0.054
			l0.099-0.106c0.034-0.035,0.067-0.07,0.102-0.104l0.053-0.051c0.02-0.024,0.041-0.055,0.062-0.082
			c0.083-0.112,0.166-0.223,0.249-0.335l0.062-0.083l0.008-0.01c0.011-0.016-0.064,0.102-0.03,0.049l0.009-0.015l0.017-0.029
			l0.071-0.115l0.075-0.114c0.026-0.04,0.052-0.066,0.079-0.139c0.055-0.124,0.11-0.248,0.164-0.371l0.042-0.092l0.021-0.046
			c-0.046,0.134-0.011,0.032-0.021,0.06l0.003-0.008l0.005-0.016l0.045-0.129c0.033-0.088,0.066-0.175,0.098-0.262
			c0.026-0.129,0.052-0.258,0.077-0.386l0.038-0.191l0.005-0.024c0.002-0.018-0.011,0.11-0.005,0.052l0.001-0.009l0.003-0.035
			l0.007-0.069c0.01-0.092,0.025-0.184,0.039-0.277c0.003-0.024,0.008-0.045,0.011-0.071l-0.001-0.095l-0.001-0.189l-0.001-0.187
			l-0.001-0.093v-0.046v-0.023v-0.012c0.011,0.1,0.003,0.023,0.005,0.043c-0.008-0.098-0.017-0.195-0.025-0.291l-0.01-0.146
			c-0.002-0.048-0.003-0.095-0.017-0.158c-0.04-0.218-0.079-0.433-0.117-0.644c-0.049-0.196-0.098-0.388-0.145-0.577
			c-0.071-0.211-0.14-0.417-0.208-0.619l-0.013-0.038l-0.006-0.019c0.024,0.049,0.005,0.009,0.009,0.017l-0.003-0.008l-0.027-0.067
			c-0.018-0.044-0.036-0.089-0.054-0.133c-0.035-0.089-0.069-0.177-0.103-0.264c-0.059-0.172-0.151-0.354-0.232-0.528
			c-0.041-0.087-0.082-0.173-0.121-0.257c-0.02-0.042-0.039-0.085-0.058-0.126l-0.007-0.016c-0.01-0.015,0.009,0.012,0.006,0.007
			l-0.004-0.007l-0.015-0.029l-0.03-0.057c-0.162-0.306-0.298-0.594-0.464-0.868c-0.078-0.136-0.154-0.267-0.226-0.392
			c-0.034-0.06-0.068-0.118-0.1-0.175c-0.035-0.057-0.07-0.113-0.104-0.167c-0.135-0.22-0.256-0.416-0.361-0.587
			c-0.114-0.169-0.208-0.314-0.284-0.432C58.922,24.606,58.841,24.479,58.841,24.479z"/>
		<path fill="#F9C81C" d="M14.111,12.417c0,0,0.152-0.085,0.437-0.245c0.144-0.078,0.317-0.179,0.536-0.275
			c0.218-0.099,0.462-0.224,0.757-0.338c0.141-0.056,0.29-0.115,0.446-0.176c0.078-0.03,0.158-0.061,0.24-0.093
			c0.085-0.029,0.171-0.058,0.259-0.088c0.177-0.06,0.363-0.122,0.557-0.183l0.073-0.023l0.037-0.012l0.018-0.006l0.009-0.003
			c0.001-0.001,0.024-0.005,0.019-0.004c0.048-0.014,0.097-0.027,0.146-0.041c0.098-0.028,0.198-0.056,0.3-0.084
			c0.205-0.056,0.408-0.119,0.634-0.168c0.226-0.051,0.458-0.103,0.697-0.157c0.06-0.013,0.12-0.027,0.181-0.04
			c0.063-0.012,0.126-0.023,0.189-0.035c0.119-0.022,0.24-0.043,0.362-0.065c0.246-0.042,0.487-0.094,0.757-0.129
			c0.265-0.04,0.536-0.075,0.814-0.112c0.279-0.025,0.563-0.051,0.851-0.077c0.278-0.026,0.56-0.046,0.847-0.068
			c0.143-0.011,0.288-0.022,0.434-0.033c0.073-0.006,0.146-0.011,0.219-0.017c0.093-0.002,0.186-0.003,0.28-0.005
			c0.592-0.014,1.2-0.013,1.822-0.02l0.234-0.002l0.117-0.001l0.18,0.008c0.157,0.008,0.314,0.017,0.472,0.025
			c0.316,0.017,0.636,0.035,0.958,0.053c0.322,0.019,0.647,0.033,0.974,0.056c0.347,0.041,0.696,0.081,1.047,0.122
			c0.33,0.039,0.661,0.077,0.995,0.116c0.166,0.021,0.333,0.042,0.501,0.063l0.063,0.008l0.031,0.004l0.016,0.002
			c0.033,0.006-0.052-0.01,0.079,0.013l0.125,0.022l0.25,0.044c0.666,0.121,1.34,0.231,2.012,0.362l0.253,0.048l0.094,0.02
			l0.031,0.007l0.063,0.015l0.125,0.03l0.501,0.119l1.003,0.238l1.062,0.267c0.329,0.098,0.658,0.196,0.986,0.294
			c0.328,0.097,0.656,0.195,0.981,0.298c0.163,0.051,0.325,0.101,0.487,0.152l0.243,0.076l0.091,0.029l0.03,0.011l0.06,0.022
			l0.119,0.043c0.318,0.115,0.636,0.23,0.951,0.343c0.314,0.118,0.627,0.235,0.938,0.352c0.155,0.058,0.31,0.116,0.465,0.174
			l0.116,0.043c0.117,0.043,0.041,0.015,0.07,0.026l0.014,0.006l0.028,0.012l0.057,0.024l0.226,0.097
			c0.302,0.127,0.598,0.261,0.894,0.391c0.295,0.13,0.588,0.259,0.878,0.387c0.145,0.064,0.289,0.128,0.433,0.191l0.013,0.006
			c0.103,0.043,0.036,0.016,0.063,0.027l0.026,0.013l0.052,0.027l0.104,0.053l0.208,0.106c0.553,0.284,1.097,0.556,1.62,0.832
			l0.196,0.103l0.097,0.051l0.049,0.026l0.024,0.013l0.012,0.006c-0.036-0.017,0.063,0.03,0.057,0.028
			c0.126,0.074,0.251,0.147,0.375,0.22c0.248,0.146,0.493,0.287,0.732,0.433c0.239,0.144,0.474,0.286,0.704,0.425
			c0.115,0.07,0.229,0.138,0.342,0.207l0.085,0.051c-0.004-0.002,0.076,0.041,0.047,0.026l0.01,0.007l0.02,0.014l0.041,0.028
			c0.054,0.037,0.107,0.074,0.161,0.111c0.426,0.295,0.834,0.577,1.223,0.845c0.193,0.136,0.381,0.269,0.564,0.398l0.034,0.024
			c-0.023-0.013,0.041,0.025,0.037,0.023l0.008,0.006l0.016,0.013l0.065,0.051c0.043,0.034,0.086,0.068,0.129,0.102
			c0.085,0.068,0.168,0.135,0.25,0.201c0.328,0.266,0.637,0.51,0.918,0.745c0.141,0.116,0.276,0.228,0.405,0.335
			c0.037,0.031,0.074,0.061,0.11,0.091c0.03,0.028,0.059,0.056,0.088,0.083c0.058,0.055,0.115,0.109,0.17,0.161
			c0.884,0.832,1.37,1.336,1.37,1.336s-0.633-0.297-1.707-0.864c-0.067-0.035-0.136-0.072-0.207-0.109
			c-0.035-0.019-0.071-0.038-0.107-0.057l-0.014-0.007l-0.007-0.004c-0.016-0.011,0.015,0.01,0.009,0.007l-0.028-0.013l-0.057-0.027
			c-0.152-0.071-0.31-0.146-0.476-0.223c-0.332-0.154-0.685-0.329-1.066-0.512c-0.095-0.046-0.191-0.093-0.289-0.141
			c-0.049-0.024-0.098-0.049-0.147-0.073l-0.07-0.036l-0.019-0.009l-0.009-0.005c-0.009-0.005,0.048,0.03,0.019,0.013l-0.038-0.017
			c-0.205-0.089-0.417-0.181-0.633-0.275c-0.431-0.192-0.885-0.394-1.358-0.605c-0.059-0.026-0.119-0.053-0.178-0.08l-0.045-0.02
			l-0.022-0.01l-0.011-0.005c-0.037-0.019,0.037,0.02,0.025,0.014l-0.092-0.037c-0.122-0.049-0.246-0.099-0.371-0.15
			c-0.25-0.101-0.504-0.204-0.762-0.308c-0.259-0.103-0.52-0.215-0.785-0.325c-0.133-0.055-0.267-0.111-0.401-0.168
			c-0.014-0.006,0.076,0.036,0.032,0.016l-0.013-0.005l-0.026-0.009l-0.052-0.019l-0.103-0.038l-0.208-0.076
			c-0.557-0.202-1.123-0.422-1.706-0.64l-0.219-0.083l-0.11-0.041l-0.055-0.021l-0.028-0.01c0.017,0.008-0.059-0.024,0.036,0.016
			l-0.014-0.003c-0.149-0.051-0.298-0.102-0.448-0.153c-0.3-0.102-0.603-0.206-0.908-0.31c-0.305-0.105-0.614-0.207-0.922-0.318
			l-0.232-0.082l-0.058-0.021l-0.029-0.01l-0.015-0.006c0.02,0.007-0.066-0.024,0.042,0.015l-0.118-0.035
			c-0.158-0.048-0.316-0.097-0.475-0.145c-0.317-0.097-0.637-0.195-0.958-0.293c-0.32-0.102-0.641-0.204-0.963-0.307l-0.121-0.039
			l-0.061-0.019l-0.03-0.01c-0.059-0.019,0.064,0.02,0.046,0.015l-0.015-0.004l-0.246-0.067c-0.164-0.044-0.328-0.089-0.493-0.133
			c-0.33-0.087-0.658-0.181-0.988-0.275c-0.329-0.094-0.66-0.187-0.99-0.281l-0.941-0.223l-1-0.25l-0.5-0.125l-0.125-0.031
			l-0.062-0.016l-0.031-0.008c0.023,0.005-0.073-0.016,0.047,0.01l-0.016-0.003l-0.252-0.051c-0.672-0.133-1.338-0.285-2-0.425
			l-0.248-0.053l-0.124-0.027c0.121,0.02,0.025,0.004,0.047,0.008l-0.016-0.003l-0.031-0.005l-0.062-0.01
			c-0.166-0.028-0.332-0.057-0.497-0.085c-0.33-0.06-0.659-0.119-0.986-0.178c-0.163-0.029-0.326-0.059-0.488-0.088l-0.243-0.044
			l-0.121-0.022l-0.061-0.011l-0.03-0.005l-0.015-0.003c-0.019-0.003,0.111,0.013,0.049,0.006c-0.325-0.042-0.647-0.091-0.966-0.135
			c-0.319-0.046-0.636-0.091-0.95-0.135c-0.157-0.023-0.313-0.045-0.468-0.068l-0.058-0.009l-0.029-0.004
			c0.12,0.008,0.025,0.001,0.048,0.003l-0.015-0.001l-0.117-0.012l-0.232-0.024c-0.618-0.065-1.223-0.12-1.812-0.19L24,12.087
			l-0.055-0.006l-0.027-0.003c0.112,0.002,0.023,0,0.045,0l-0.014-0.001c-0.073-0.004-0.147-0.009-0.219-0.013
			c-0.146-0.008-0.291-0.017-0.434-0.025c-0.287-0.017-0.57-0.032-0.848-0.053c-0.267-0.019-0.53-0.037-0.788-0.055
			c-0.258-0.007-0.512-0.012-0.763-0.023c-0.246-0.014-0.507-0.007-0.753-0.009c-0.124,0-0.246-0.001-0.367-0.001
			c-0.056-0.001-0.113-0.001-0.168-0.002c-0.057,0.001-0.114,0.002-0.171,0.003c-0.228,0.004-0.45,0.007-0.666,0.011
			c-0.216,0.003-0.438,0.023-0.648,0.029c-0.105,0.005-0.209,0.01-0.311,0.015c-0.051,0.002-0.101,0.005-0.152,0.007
			c-0.012,0.002,0.005-0.002,0-0.001l-0.009,0.001l-0.018,0.002l-0.036,0.003l-0.071,0.006c-0.191,0.015-0.375,0.029-0.552,0.043
			c-0.089,0.007-0.177,0.014-0.262,0.02c-0.087,0.01-0.172,0.021-0.255,0.031c-0.167,0.019-0.326,0.036-0.476,0.053
			c-0.58,0.077-1.056,0.144-1.376,0.21C14.283,12.387,14.111,12.417,14.111,12.417z"/>
		<path fill="#0033F6" d="M57.459,41.228c0,0-0.104,0.092-0.284,0.277c-0.181,0.184-0.44,0.457-0.75,0.818s-0.674,0.807-1.063,1.335
			c-0.195,0.264-0.399,0.546-0.602,0.851c-0.209,0.3-0.417,0.623-0.629,0.963c-0.427,0.676-0.852,1.429-1.272,2.236
			c-0.106,0.201-0.207,0.409-0.311,0.618c-0.106,0.207-0.206,0.422-0.307,0.637c-0.202,0.432-0.396,0.879-0.592,1.332
			c-0.098,0.227-0.188,0.46-0.283,0.692c-0.09,0.234-0.181,0.47-0.273,0.707c-0.087,0.239-0.175,0.479-0.264,0.721
			c-0.088,0.253-0.177,0.508-0.265,0.764c-0.363,1.029-0.772,2.071-1.231,3.095c-0.917,2.047-2.037,4.028-3.309,5.745
			c-0.635,0.858-1.304,1.652-1.993,2.356c-0.34,0.355-0.688,0.686-1.035,0.993c-0.344,0.311-0.692,0.594-1.033,0.856
			c-0.682,0.525-1.349,0.949-1.959,1.284c-0.611,0.335-1.165,0.58-1.629,0.755c-0.465,0.174-0.838,0.281-1.094,0.347
			c-0.128,0.033-0.227,0.054-0.294,0.068c-0.066,0.015-0.101,0.022-0.101,0.022s0.108-0.089,0.31-0.257
			c0.199-0.17,0.493-0.41,0.847-0.73c0.355-0.318,0.772-0.713,1.226-1.18c0.455-0.465,0.941-1.009,1.445-1.617
			c0.251-0.305,0.504-0.629,0.764-0.964c0.256-0.338,0.514-0.693,0.775-1.06c0.514-0.74,1.035-1.534,1.545-2.375
			c1.023-1.681,2.016-3.543,2.953-5.455c0.47-0.956,0.929-1.921,1.383-2.882c0.235-0.494,0.467-0.985,0.697-1.47
			c0.241-0.491,0.499-0.967,0.758-1.431c0.26-0.464,0.531-0.912,0.811-1.34c0.14-0.214,0.277-0.427,0.42-0.632
			c0.139-0.208,0.284-0.407,0.43-0.603c0.576-0.786,1.169-1.491,1.751-2.108c0.294-0.306,0.58-0.594,0.861-0.858
			s0.559-0.503,0.82-0.724c0.53-0.437,1.015-0.785,1.427-1.052c0.412-0.266,0.75-0.45,0.984-0.567
			C57.329,41.278,57.459,41.228,57.459,41.228z"/>
		<path fill="#F9081B" d="M15.047,31.356c0,0,0.037,0.029,0.107,0.084c0.07,0.055,0.176,0.142,0.302,0.265
			c0.255,0.243,0.604,0.637,0.962,1.199c0.362,0.56,0.727,1.288,1.062,2.15c0.334,0.863,0.636,1.86,0.895,2.959
			c0.258,1.099,0.474,2.299,0.649,3.57c0.173,1.271,0.309,2.613,0.405,4c0.054,0.693,0.088,1.398,0.122,2.11
			c0.016,0.356,0.032,0.714,0.048,1.074c0.01,0.356,0.021,0.713,0.031,1.072c0.007,0.177,0.011,0.369,0.02,0.534
			c0.009,0.167,0.017,0.334,0.03,0.508c0.023,0.344,0.051,0.689,0.082,1.035c0.063,0.691,0.157,1.381,0.274,2.067
			c0.108,0.687,0.246,1.369,0.409,2.042c0.166,0.672,0.337,1.34,0.546,1.991c0.101,0.327,0.213,0.648,0.326,0.967
			c0.111,0.32,0.228,0.636,0.352,0.947c0.247,0.622,0.518,1.225,0.798,1.812c0.573,1.166,1.211,2.254,1.903,3.226
			c0.69,0.974,1.426,1.839,2.169,2.58c0.742,0.743,1.491,1.365,2.195,1.872s1.359,0.903,1.917,1.206
			c0.558,0.302,1.015,0.518,1.33,0.66c0.317,0.14,0.487,0.215,0.487,0.215s-0.046-0.004-0.136-0.013
			c-0.089-0.01-0.224-0.017-0.396-0.042c-0.347-0.043-0.855-0.122-1.494-0.282c-0.639-0.157-1.407-0.404-2.258-0.779
			c-0.85-0.375-1.777-0.889-2.718-1.562c-0.94-0.673-1.888-1.508-2.782-2.495c-0.893-0.987-1.73-2.123-2.465-3.375
			c-0.371-0.624-0.709-1.28-1.024-1.956c-0.318-0.675-0.602-1.375-0.854-2.092c-0.515-1.431-0.89-2.933-1.15-4.451
			c-0.121-0.761-0.215-1.526-0.277-2.29c-0.031-0.382-0.056-0.764-0.065-1.146c-0.007-0.189-0.01-0.385-0.013-0.58
			c-0.004-0.198-0.001-0.367-0.002-0.551c0.014-1.437,0.027-2.851,0.04-4.22c0.007-1.361,0.01-2.673-0.013-3.914
			c-0.021-1.241-0.062-2.411-0.137-3.486c-0.071-1.075-0.178-2.055-0.317-2.916c-0.14-0.86-0.316-1.6-0.51-2.196
			s-0.405-1.048-0.572-1.347c-0.084-0.15-0.151-0.262-0.201-0.337C15.072,31.395,15.047,31.356,15.047,31.356z"/>
	</g>
	<g>
		<path fill="#151515" d="M52.35,70.739v-5.972h-2.231v-0.799h5.367v0.799h-2.24v5.972C53.246,70.74,52.35,70.74,52.35,70.739z"/>
		<path fill="#151515" d="M56.378,70.739v-6.771h1.349l1.603,4.794c0.148,0.447,0.256,0.781,0.323,1.002
			c0.077-0.246,0.197-0.608,0.36-1.085l1.621-4.711h1.205v6.771h-0.864v-5.667l-1.968,5.667H59.2l-1.958-5.764v5.764H56.378z"/>
	</g>
</g>
</svg>
