<?xml version="1.0" encoding="utf-8"?>
<!-- Generator: Adobe Illustrator 17.0.0, SVG Export Plug-In . SVG Version: 6.00 Build 0)  -->
<!DOCTYPE svg PUBLIC "-//W3C//DTD SVG 1.1//EN" "http://www.w3.org/Graphics/SVG/1.1/DTD/svg11.dtd">
<svg version="1.1" id="Layer_1" xmlns="http://www.w3.org/2000/svg" xmlns:xlink="http://www.w3.org/1999/xlink" x="0px" y="0px"
	 width="200px" height="200px" viewBox="0 0 200 200" enable-background="new 0 0 200 200" xml:space="preserve">
<g>
	<g>
		<circle fill="#F9081B" cx="49.951" cy="55.493" r="15.042"/>
		<circle fill="#0033F6" cx="152.565" cy="84.627" r="15.041"/>
		<circle fill="#F9C81C" cx="110.117" cy="16.042" r="15.042"/>
		<path fill="#F9081B" d="M89.395,102.889c0,0-1.629-0.182-4.428-0.656c-0.702-0.113-1.472-0.255-2.313-0.406
			c-0.21-0.038-0.424-0.077-0.643-0.116c-0.109-0.021-0.219-0.042-0.33-0.063l-0.167-0.032l-0.084-0.016l-0.021-0.004
			c-0.032-0.011,0.042,0.018-0.077-0.025l-0.042-0.01c-0.447-0.108-0.911-0.219-1.39-0.334c-0.959-0.226-1.968-0.496-3.039-0.765
			c-0.536-0.133-1.08-0.283-1.638-0.433c-0.279-0.075-0.561-0.151-0.847-0.228c-0.143-0.038-0.286-0.077-0.431-0.116l-0.108-0.029
			l-0.054-0.015l-0.027-0.007c0.012,0.007-0.202-0.082-0.124-0.049l-0.215-0.069c-1.151-0.367-2.338-0.777-3.573-1.186
			c-0.618-0.203-1.24-0.424-1.874-0.646c-0.317-0.111-0.635-0.222-0.957-0.335l-0.484-0.169l-0.03-0.011
			c-0.065-0.03,0.103,0.051-0.154-0.069l-0.06-0.024l-0.12-0.048l-0.24-0.097c-1.283-0.511-2.581-1.076-3.919-1.631
			c-0.668-0.279-1.343-0.562-2.018-0.862l-0.254-0.111L59.671,94.3l-0.032-0.014c0.022,0.013-0.302-0.159-0.18-0.094l-0.125-0.062
			l-0.5-0.248c-0.334-0.166-0.669-0.332-1.006-0.499c-1.351-0.66-2.708-1.361-4.083-2.069l-0.258-0.133l-0.129-0.066l-0.065-0.033
			l-0.032-0.017c0.141,0.085-0.229-0.135-0.202-0.119l-0.503-0.293c-0.336-0.196-0.673-0.392-1.011-0.588
			c-0.67-0.402-1.344-0.806-2.02-1.211c-0.675-0.407-1.354-0.815-2.034-1.224l-0.128-0.077l-0.309-0.207l-0.246-0.168l-0.493-0.336
			l-0.978-0.687c-0.652-0.459-1.306-0.919-1.96-1.379l-0.982-0.691l-0.246-0.173l-0.123-0.086l-0.266-0.198l-0.475-0.368
			l-1.88-1.499c-0.65-0.553-1.299-1.105-1.948-1.656l-0.243-0.207l-0.121-0.103l-0.173-0.154l-0.44-0.404l-0.869-0.817
			c-0.292-0.281-0.568-0.525-0.872-0.836l-0.902-0.913l-0.895-0.91l-0.111-0.114l-0.15-0.162l-0.197-0.218l-0.394-0.435
			c-0.522-0.602-1.016-1.126-1.565-1.821c-0.267-0.329-0.534-0.657-0.8-0.984l-0.396-0.49l-0.156-0.195l-0.085-0.116l-0.169-0.231
			c-0.226-0.308-0.45-0.615-0.667-0.925l-0.328-0.463l-0.163-0.231l-0.171-0.262c-0.228-0.354-0.455-0.706-0.681-1.057l-0.336-0.525
			l-0.167-0.261l-0.083-0.13c0.004,0.006-0.112-0.175-0.071-0.112l-0.017-0.03l-0.034-0.06c-0.363-0.646-0.714-1.277-1.056-1.931
			c-0.37-0.782-0.736-1.555-1.097-2.319c-0.251-0.663-0.503-1.309-0.735-1.968c-0.117-0.386-0.232-0.77-0.347-1.151
			c-0.121-0.419-0.241-0.835-0.361-1.248c-0.124-0.668-0.262-1.285-0.365-1.968c-0.043-0.387-0.085-0.771-0.127-1.151
			c-0.019-0.189-0.038-0.377-0.057-0.564l-0.027-0.279L22.006,54.1l0.001-0.118c0.004-0.314,0.007-0.625,0.011-0.932
			c0.002-0.154,0.004-0.307,0.006-0.459c0.004-0.153,0.004-0.295,0.027-0.491c0.038-0.363,0.075-0.722,0.112-1.077
			c0.02-0.176,0.04-0.35,0.06-0.524l0.031-0.258l0.008-0.064c0.027-0.257,0.011-0.086,0.019-0.15l0.007-0.026l0.026-0.105
			c0.145-0.567,0.26-1.097,0.425-1.656c0.215-0.623,0.432-1.219,0.645-1.787l0.075-0.2l0.046-0.086l0.091-0.171
			c0.06-0.114,0.12-0.227,0.179-0.339c0.121-0.223,0.24-0.443,0.358-0.659c0.062-0.11,0.111-0.211,0.182-0.325
			c0.077-0.116,0.153-0.232,0.229-0.346c0.151-0.225,0.3-0.446,0.446-0.664c0.159-0.233,0.316-0.462,0.47-0.686
			c0.15-0.164,0.297-0.325,0.441-0.482c0.294-0.316,0.552-0.617,0.841-0.907c0.312-0.293,0.617-0.56,0.9-0.811
			c0.141-0.124,0.279-0.245,0.413-0.363l0.123-0.108l0.101-0.071c0.067-0.047,0.132-0.093,0.197-0.139
			c0.261-0.18,0.505-0.349,0.733-0.506c0.233-0.153,0.426-0.31,0.644-0.426c0.212-0.117,0.404-0.224,0.577-0.319
			c0.686-0.375,1.045-0.555,1.045-0.555s-0.256,0.315-0.735,0.905c-0.239,0.288-0.53,0.625-0.842,1.092
			c-0.16,0.225-0.332,0.468-0.515,0.726c-0.046,0.064-0.094,0.129-0.142,0.195l-0.072,0.1l-0.009,0.013
			c-0.024,0.026,0.022-0.021,0.015-0.012l-0.015,0.026l-0.03,0.052c-0.078,0.137-0.159,0.278-0.242,0.423
			c-0.165,0.287-0.333,0.587-0.516,0.89c-0.174,0.329-0.343,0.718-0.527,1.098c-0.091,0.193-0.184,0.39-0.279,0.591
			c-0.038,0.061,0.041-0.062,0.031-0.043l-0.006,0.018l-0.012,0.035l-0.023,0.07l-0.047,0.141c-0.031,0.094-0.062,0.188-0.094,0.284
			c-0.063,0.188-0.128,0.378-0.193,0.573c-0.033,0.095-0.066,0.191-0.099,0.288c-0.032,0.102-0.056,0.233-0.085,0.349
			c-0.056,0.24-0.113,0.483-0.171,0.731c-0.03,0.123-0.061,0.247-0.091,0.372l-0.046,0.188l-0.023,0.095
			c0.013-0.036-0.038,0.114,0.029-0.075l-0.002,0.021l-0.004,0.041c-0.04,0.438-0.084,0.876-0.137,1.315
			c-0.013,0.545-0.027,1.105-0.041,1.677l-0.003,0.109l-0.001,0.027c0.006-0.046-0.014,0.142,0.013-0.097l0.006,0.044l0.022,0.176
			l0.041,0.353c0.024,0.233,0.048,0.468,0.073,0.705c0.003,0.105,0.038,0.263,0.067,0.412c0.027,0.15,0.055,0.301,0.082,0.452
			c0.055,0.303,0.11,0.609,0.166,0.918l0.021,0.116c-0.004-0.048,0.017,0.148-0.008-0.1l0.007,0.023l0.015,0.046l0.058,0.185
			l0.114,0.371c0.073,0.246,0.146,0.493,0.22,0.743c0.222,0.603,0.449,1.217,0.678,1.84l0.011,0.03
			c0.037,0.121-0.039-0.131-0.027-0.097l0.024,0.048l0.047,0.095l0.094,0.191l0.186,0.383c0.121,0.255,0.244,0.512,0.367,0.77
			c0.335,0.595,0.669,1.215,1.005,1.836c0.05,0.104-0.051-0.108-0.034-0.078l0.016,0.024l0.031,0.048l0.063,0.096l0.126,0.193
			l0.251,0.386c0.165,0.258,0.332,0.517,0.499,0.777c0.416,0.576,0.85,1.177,1.269,1.781c0.39,0.487,0.784,0.979,1.181,1.475
			l0.157,0.196l0.186,0.213l0.374,0.426c0.252,0.283,0.498,0.573,0.745,0.864l0.186,0.218l0.093,0.109
			c0.021,0.025-0.097-0.121-0.036-0.048l0.022,0.024l0.045,0.047l0.358,0.378c0.238,0.252,0.477,0.506,0.716,0.76
			c0.441,0.493,1.055,1.062,1.599,1.602l0.414,0.416l0.207,0.209l0.052,0.052l0.026,0.026c0.054,0.055-0.044-0.046-0.025-0.027
			l0.099,0.092l0.795,0.737l0.795,0.74c0.259,0.246,0.588,0.514,0.88,0.77l0.901,0.782l0.446,0.397l0.375,0.31
			c0.574,0.475,1.148,0.95,1.724,1.426l1.894,1.471l0.469,0.375l0.059,0.047c-0.28-0.21-0.06-0.046-0.115-0.087l0.03,0.022
			l0.121,0.088l0.243,0.176l0.971,0.705c0.647,0.47,1.294,0.94,1.939,1.408l0.966,0.703l0.775,0.582
			c0.661,0.439,1.32,0.877,1.977,1.314c0.656,0.437,1.309,0.873,1.959,1.307c0.322,0.221,0.644,0.442,0.964,0.662l0.48,0.329
			c0.047,0.029-0.302-0.179-0.14-0.082l0.031,0.019l0.062,0.038l0.124,0.076l0.247,0.151c1.32,0.805,2.624,1.601,3.89,2.411
			c0.318,0.201,0.634,0.401,0.949,0.6l0.471,0.298l0.118,0.074c0.143,0.077-0.161-0.083-0.119-0.061l0.03,0.017l0.06,0.034
			l0.241,0.137c0.644,0.36,1.276,0.73,1.9,1.097c1.247,0.737,2.478,1.436,3.657,2.156l0.221,0.134l0.11,0.067l0.055,0.033
			c-0.238-0.111-0.05-0.022-0.096-0.043l0.028,0.015l0.45,0.245c0.299,0.162,0.596,0.324,0.891,0.484
			c0.589,0.32,1.171,0.632,1.737,0.954c1.133,0.64,2.233,1.244,3.278,1.85l0.195,0.113c0.095,0.041-0.102-0.04-0.073-0.027
			l0.025,0.013l0.05,0.026l0.1,0.052c0.133,0.069,0.264,0.138,0.396,0.206c0.262,0.137,0.522,0.272,0.778,0.405
			c0.513,0.267,1.015,0.525,1.499,0.79c0.97,0.526,1.896,1.01,2.755,1.493c0.43,0.239,0.847,0.471,1.249,0.694l0.038,0.021
			c-0.106-0.037-0.018-0.005-0.037-0.011l0.019,0.01l0.077,0.038l0.152,0.076c0.101,0.051,0.201,0.101,0.3,0.151
			c0.197,0.102,0.391,0.202,0.581,0.3c0.759,0.392,1.457,0.749,2.082,1.087C87.992,102.04,89.395,102.889,89.395,102.889z"/>
		<path fill="#0033F6" d="M163.697,67.876c0,0,0.342,0.243,0.982,0.698c0.318,0.23,0.709,0.514,1.162,0.855
			c0.446,0.355,0.951,0.779,1.519,1.258c0.143,0.12,0.289,0.243,0.439,0.37c0.044,0.04,0.061,0.045,0.128,0.115l0.107,0.1
			c0.071,0.067,0.143,0.136,0.216,0.205c0.292,0.276,0.598,0.565,0.916,0.866c0.159,0.151,0.322,0.304,0.487,0.461
			c0.165,0.159,0.324,0.346,0.492,0.523c0.335,0.364,0.681,0.74,1.039,1.13l0.135,0.148l0.068,0.074l0.017,0.019
			c0-0.003,0.06,0.089,0.042,0.059l0.031,0.037c0.082,0.099,0.164,0.199,0.247,0.3c0.164,0.203,0.33,0.408,0.498,0.617
			c0.337,0.419,0.685,0.827,1.033,1.35c0.175,0.252,0.351,0.506,0.53,0.764c0.088,0.131,0.177,0.262,0.267,0.394l0.135,0.199
			l0.017,0.025c0.021,0.04-0.023-0.055,0.051,0.097l0.028,0.048l0.057,0.096c0.303,0.511,0.613,1.033,0.929,1.567
			c0.314,0.591,0.614,1.265,0.923,1.927l0.058,0.126l0.029,0.063l0.014,0.032c-0.002-0.012,0.07,0.224,0.045,0.137l0.087,0.227
			c0.058,0.152,0.116,0.305,0.174,0.458c0.117,0.307,0.235,0.616,0.353,0.928c0.062,0.142,0.115,0.341,0.168,0.536
			c0.052,0.195,0.104,0.39,0.156,0.586c0.099,0.397,0.199,0.796,0.3,1.199c0.062,0.39,0.125,0.782,0.188,1.178l0.085,0.519
			l0.043,0.261l0.021,0.33c0.025,0.448,0.049,0.902,0.062,1.362l0.008,0.345l0.003,0.173l0.001,0.043
			c0.016-0.14-0.021,0.24-0.018,0.213l-0.005,0.068l-0.037,0.542c-0.025,0.363-0.05,0.727-0.075,1.094
			c-0.069,0.449-0.165,0.944-0.258,1.42l-0.148,0.724l-0.019,0.091l-0.01,0.045c-0.033,0.1,0.06-0.159-0.076,0.235l-0.041,0.134
			l-0.083,0.269c-0.115,0.358-0.231,0.717-0.347,1.078c-0.04,0.158-0.161,0.414-0.262,0.642l-0.319,0.697l-0.331,0.698l-0.085,0.175
			l-0.043,0.087c0.082-0.127-0.137,0.223-0.121,0.198l-0.019,0.031l-0.149,0.248c-0.198,0.331-0.397,0.664-0.597,0.998
			c-0.052,0.085-0.095,0.164-0.155,0.254l-0.226,0.308l-0.466,0.611l-0.478,0.608l-0.243,0.303l-0.332,0.353
			c-0.271,0.287-0.543,0.575-0.815,0.863c-0.229,0.268-0.647,0.627-1.02,0.957l-0.572,0.5l-0.289,0.249l-0.145,0.124l-0.073,0.062
			c0.09-0.063-0.163,0.122-0.148,0.11l-0.03,0.023c-0.32,0.242-0.649,0.474-0.974,0.712l-0.49,0.356l-0.125,0.09l-0.155,0.097
			l-0.311,0.194c-0.417,0.257-0.836,0.514-1.255,0.772l-0.316,0.191l-0.079,0.048c0.085-0.043-0.161,0.086-0.147,0.079l-0.034,0.018
			l-0.135,0.071l-0.541,0.284l-1.084,0.57c-0.388,0.189-0.861,0.382-1.29,0.571l-0.66,0.283l-0.331,0.141l-0.166,0.07l-0.083,0.035
			l-0.159,0.06l-1.156,0.425c-0.396,0.141-0.749,0.284-1.18,0.424l-1.332,0.412l-0.669,0.198l-0.335,0.097l-0.244,0.068l-0.15,0.036
			l-1.199,0.29l-1.205,0.288l-1.323,0.264l-1.321,0.26l-0.241,0.044l-0.152,0.022l-0.303,0.042l-0.606,0.084
			c-0.816,0.11-1.583,0.235-2.478,0.316c-0.433,0.045-0.865,0.09-1.296,0.135l-0.646,0.066l-0.384,0.037l-0.301,0.02
			c-0.802,0.042-1.6,0.084-2.393,0.125c-0.821,0.03-1.674,0.041-2.499,0.061l-0.621,0.013l-0.414,0.005l-0.292-0.012
			c-0.389-0.016-0.776-0.032-1.162-0.048c-1.543-0.07-3.06-0.11-4.546-0.202l-0.278-0.015c0.157,0.002-0.252-0.005-0.223-0.006
			l-0.035-0.004l-0.069-0.008l-0.138-0.015l-0.55-0.062c-0.366-0.041-0.729-0.082-1.09-0.122c-0.722-0.081-1.436-0.157-2.139-0.25
			c-0.704-0.089-1.397-0.176-2.081-0.262l-0.511-0.064c0.021,0.001-0.298-0.023-0.178-0.015l-0.032-0.006l-0.063-0.011l-0.126-0.023
			l-0.251-0.045c-0.334-0.063-0.664-0.125-0.992-0.187c-1.311-0.257-2.578-0.505-3.795-0.743c-0.641-0.133-1.269-0.264-1.883-0.392
			c-0.575-0.15-1.137-0.29-1.683-0.442c-1.092-0.302-2.131-0.573-3.103-0.855c-0.486-0.14-0.957-0.275-1.411-0.405
			c-0.227-0.065-0.45-0.13-0.669-0.193l-0.02-0.006c0.006,0-0.13-0.024-0.082-0.017l-0.04-0.014l-0.08-0.028l-0.159-0.056
			c-0.105-0.037-0.21-0.074-0.313-0.111c-0.826-0.293-1.586-0.558-2.269-0.815c-2.737-1.002-4.282-1.667-4.282-1.667
			s1.683-0.03,4.595,0.081c0.729,0.021,1.533,0.064,2.409,0.106c0.109,0.005,0.22,0.011,0.332,0.016l0.168,0.008l0.085,0.004
			l0.043,0.002c0.062,0.01-0.06-0.012-0.04-0.01l0.021,0c0.228,0.003,0.46,0.006,0.696,0.009c0.472,0.006,0.962,0.013,1.467,0.02
			c1.012,0.011,2.084,0.052,3.216,0.079c0.567,0.012,1.145,0.04,1.739,0.063l0.111,0.005l0.056,0.002
			c0.031,0.003-0.173-0.023-0.073-0.012l0.028,0l0.225-0.002c0.15-0.001,0.301-0.002,0.453-0.003
			c0.304-0.002,0.611-0.004,0.921-0.007c1.239,0.006,2.53,0.012,3.866,0.018c0.334,0.004,0.67,0.008,1.01,0.012l0.255,0.005
			l0.128,0.003l0.064,0.001l0.032,0.001c0.141,0.01-0.157-0.013-0.114-0.011l0.514-0.016c0.689-0.022,1.388-0.044,2.096-0.067
			c0.709-0.027,1.427-0.036,2.153-0.05c0.363-0.007,0.729-0.013,1.097-0.02l0.553-0.01l0.139-0.002l0.069-0.001l0.035-0.001
			c0.053,0.001-0.333-0.008-0.153-0.005l0.278-0.021c1.483-0.121,2.999-0.19,4.54-0.29c0.385-0.023,0.772-0.047,1.161-0.07
			l0.292-0.018c-0.036,0,0.131-0.004-0.07,0l0.034-0.004l0.069-0.008l0.137-0.014l0.55-0.052c0.736-0.071,1.478-0.142,2.224-0.214
			c0.788-0.099,1.581-0.198,2.377-0.299l0.299-0.034l0.037-0.004c0.071-0.007-0.055,0.005-0.03,0.002l0.069-0.01l0.138-0.021
			l0.553-0.082c0.369-0.054,0.739-0.109,1.11-0.163c0.716-0.09,1.549-0.261,2.344-0.404l1.113-0.208l1.085-0.231l1.087-0.227
			l1.187-0.302l1.194-0.307l0.149-0.038c0.03-0.008-0.124,0.032-0.044,0.01l0.032-0.01l0.064-0.02l0.256-0.08l0.513-0.156
			l1.032-0.294c0.354-0.106,0.767-0.264,1.147-0.393l1.163-0.408l0.873-0.359c0.323-0.136,0.615-0.238,0.966-0.396l1.108-0.523
			l0.553-0.261l0.138-0.065l0.035-0.016c0.037-0.018-0.188,0.098-0.081,0.042l0.052-0.029l0.21-0.117l0.845-0.459l0.213-0.113
			l0.107-0.056l0.125-0.082l0.505-0.334c0.337-0.221,0.67-0.448,1.009-0.663l0.606-0.447c0.241-0.179,0.462-0.3,0.777-0.612
			c0.293-0.268,0.585-0.536,0.875-0.802l0.109-0.1l0.054-0.05l0.027-0.025c-0.24,0.249-0.057,0.058-0.106,0.109l0.135-0.15
			l0.275-0.296c0.094-0.097,0.186-0.196,0.284-0.29l0.148-0.142c0.055-0.067,0.115-0.153,0.173-0.229
			c0.232-0.312,0.464-0.623,0.694-0.933l0.173-0.232l0.022-0.029c0.03-0.045-0.178,0.284-0.084,0.135l0.024-0.041l0.048-0.081
			l0.198-0.321l0.209-0.318c0.071-0.111,0.144-0.184,0.222-0.387c0.153-0.347,0.306-0.692,0.458-1.035l0.117-0.256l0.058-0.128
			c-0.128,0.373-0.031,0.09-0.058,0.168l0.007-0.022l0.015-0.045l0.124-0.359c0.092-0.245,0.183-0.488,0.274-0.73
			c0.072-0.361,0.144-0.719,0.215-1.076l0.107-0.533l0.013-0.066c0.007-0.05-0.032,0.308-0.015,0.145l0.002-0.024l0.009-0.096
			l0.02-0.193c0.029-0.257,0.069-0.514,0.109-0.772c0.009-0.067,0.023-0.125,0.03-0.199l-0.002-0.264l-0.003-0.526l-0.003-0.522
			l-0.001-0.26l-0.001-0.13l0-0.065l0-0.032c0.031,0.28,0.007,0.063,0.013,0.119c-0.023-0.273-0.047-0.543-0.07-0.812l-0.027-0.407
			c-0.006-0.135-0.008-0.266-0.047-0.442c-0.111-0.609-0.22-1.207-0.327-1.795c-0.137-0.547-0.272-1.083-0.404-1.609
			c-0.198-0.588-0.391-1.164-0.58-1.726l-0.035-0.105l-0.018-0.053c0.066,0.136,0.013,0.024,0.025,0.049l-0.009-0.023l-0.075-0.186
			c-0.05-0.124-0.1-0.247-0.15-0.37c-0.097-0.248-0.193-0.494-0.287-0.736c-0.166-0.48-0.42-0.988-0.648-1.472
			c-0.114-0.242-0.227-0.481-0.339-0.717c-0.054-0.118-0.108-0.236-0.162-0.353l-0.02-0.044c-0.027-0.043,0.025,0.034,0.016,0.019
			l-0.01-0.02l-0.042-0.08l-0.083-0.16c-0.453-0.852-0.831-1.655-1.293-2.42c-0.219-0.38-0.429-0.744-0.629-1.092
			c-0.095-0.166-0.189-0.329-0.28-0.488c-0.099-0.159-0.195-0.315-0.289-0.466c-0.377-0.613-0.714-1.161-1.007-1.638
			c-0.317-0.47-0.58-0.876-0.793-1.205C163.922,68.23,163.697,67.876,163.697,67.876z"/>
		<path fill="#F9C81C" d="M38.958,34.24c0,0,0.424-0.237,1.22-0.682c0.4-0.218,0.884-0.498,1.494-0.767
			c0.608-0.276,1.289-0.624,2.111-0.942c0.394-0.156,0.808-0.32,1.243-0.492c0.218-0.084,0.441-0.17,0.669-0.259
			c0.236-0.08,0.477-0.162,0.723-0.246c0.495-0.167,1.013-0.339,1.554-0.511l0.204-0.065l0.103-0.033l0.052-0.016l0.026-0.008
			c0.003-0.002,0.067-0.014,0.052-0.012c0.135-0.038,0.27-0.076,0.407-0.115c0.274-0.077,0.552-0.155,0.835-0.235
			c0.572-0.157,1.137-0.332,1.768-0.47c0.63-0.142,1.279-0.288,1.944-0.437c0.167-0.037,0.335-0.075,0.505-0.113
			c0.175-0.033,0.351-0.065,0.528-0.098c0.332-0.06,0.668-0.121,1.008-0.183c0.687-0.118,1.359-0.262,2.11-0.36
			c0.739-0.111,1.496-0.208,2.27-0.311c0.777-0.07,1.569-0.142,2.374-0.214c0.775-0.072,1.563-0.129,2.363-0.191
			c0.4-0.031,0.803-0.061,1.209-0.092c0.203-0.016,0.407-0.031,0.611-0.047c0.259-0.005,0.519-0.009,0.78-0.014
			c1.652-0.04,3.346-0.036,5.08-0.056l0.652-0.006l0.327-0.003l0.503,0.023c0.437,0.023,0.876,0.047,1.318,0.07
			c0.883,0.049,1.774,0.098,2.672,0.148c0.898,0.053,1.805,0.093,2.716,0.157c0.967,0.113,1.94,0.227,2.919,0.341
			c0.919,0.107,1.844,0.216,2.774,0.324c0.464,0.059,0.929,0.118,1.396,0.177l0.175,0.023l0.087,0.011l0.044,0.006
			c0.093,0.016-0.146-0.027,0.22,0.036l0.348,0.062l0.697,0.123c1.858,0.336,3.737,0.644,5.612,1.01l0.704,0.134l0.263,0.057
			l0.087,0.021l0.174,0.041l0.349,0.083l1.397,0.331l2.798,0.663l2.961,0.745c0.918,0.273,1.835,0.547,2.751,0.819
			c0.916,0.272,1.83,0.543,2.736,0.83c0.454,0.141,0.907,0.283,1.359,0.423l0.678,0.211l0.254,0.081l0.083,0.03l0.167,0.06
			l0.333,0.12c0.888,0.321,1.772,0.64,2.653,0.958c0.876,0.329,1.748,0.656,2.615,0.981c0.433,0.163,0.865,0.325,1.296,0.486
			l0.323,0.121c0.326,0.119,0.113,0.043,0.196,0.074l0.04,0.017l0.079,0.034l0.158,0.067l0.631,0.269
			c0.842,0.354,1.669,0.729,2.493,1.09c0.823,0.363,1.64,0.724,2.448,1.081c0.404,0.178,0.807,0.356,1.207,0.533l0.037,0.017
			c0.288,0.121,0.101,0.044,0.175,0.076l0.073,0.037l0.146,0.075l0.291,0.149l0.58,0.296c1.542,0.793,3.058,1.55,4.519,2.321
			l0.546,0.287l0.272,0.143l0.136,0.071l0.068,0.036l0.034,0.018c-0.1-0.047,0.174,0.084,0.158,0.077
			c0.351,0.206,0.7,0.411,1.046,0.614c0.691,0.408,1.376,0.801,2.04,1.207c0.666,0.402,1.321,0.797,1.963,1.185
			c0.321,0.194,0.64,0.386,0.955,0.576l0.236,0.142c-0.012-0.006,0.213,0.115,0.131,0.073l0.028,0.019l0.057,0.038l0.113,0.077
			c0.15,0.103,0.3,0.206,0.448,0.309c1.188,0.821,2.327,1.609,3.41,2.357c0.538,0.38,1.063,0.75,1.573,1.11l0.095,0.067
			c-0.064-0.037,0.114,0.069,0.104,0.065l0.023,0.018l0.046,0.036l0.182,0.143c0.121,0.095,0.241,0.19,0.36,0.283
			c0.236,0.19,0.469,0.377,0.699,0.561c0.914,0.742,1.777,1.423,2.559,2.077c0.393,0.324,0.77,0.636,1.13,0.933
			c0.104,0.085,0.207,0.17,0.308,0.253c0.083,0.078,0.165,0.156,0.247,0.232c0.162,0.153,0.32,0.303,0.474,0.448
			c2.466,2.322,3.819,3.725,3.819,3.725s-1.766-0.827-4.761-2.41c-0.187-0.099-0.38-0.2-0.577-0.304
			c-0.099-0.052-0.198-0.105-0.299-0.158l-0.038-0.02l-0.019-0.01c-0.045-0.03,0.041,0.029,0.025,0.02l-0.078-0.037l-0.158-0.074
			c-0.423-0.199-0.866-0.407-1.327-0.623c-0.926-0.428-1.911-0.918-2.972-1.427c-0.264-0.129-0.533-0.259-0.806-0.392
			c-0.136-0.068-0.272-0.136-0.41-0.204l-0.207-0.103l-0.052-0.026l-0.026-0.013c-0.026-0.015,0.134,0.083,0.054,0.036l-0.107-0.046
			c-0.573-0.248-1.162-0.504-1.766-0.766c-1.203-0.536-2.468-1.099-3.787-1.686c-0.165-0.074-0.33-0.148-0.497-0.222l-0.125-0.057
			l-0.062-0.029l-0.031-0.014c-0.102-0.053,0.104,0.056,0.071,0.04l-0.255-0.103c-0.341-0.138-0.686-0.277-1.034-0.418
			c-0.696-0.281-1.405-0.568-2.126-0.859c-0.723-0.287-1.449-0.599-2.19-0.907c-0.37-0.155-0.743-0.311-1.119-0.468
			c-0.039-0.018,0.213,0.102,0.089,0.045l-0.036-0.013l-0.072-0.026l-0.144-0.052l-0.289-0.105l-0.58-0.211
			c-1.553-0.564-3.133-1.177-4.756-1.785l-0.61-0.23l-0.306-0.116l-0.153-0.058l-0.077-0.029c0.049,0.021-0.163-0.067,0.1,0.043
			l-0.039-0.013c-0.414-0.141-0.83-0.283-1.249-0.426c-0.837-0.285-1.681-0.574-2.533-0.864c-0.851-0.293-1.713-0.577-2.572-0.888
			l-0.647-0.23l-0.162-0.058l-0.081-0.029l-0.041-0.014c0.056,0.021-0.183-0.067,0.116,0.043l-0.33-0.101
			c-0.44-0.134-0.881-0.269-1.324-0.404c-0.885-0.27-1.776-0.543-2.671-0.816c-0.891-0.284-1.787-0.57-2.687-0.857l-0.337-0.108
			l-0.169-0.054l-0.084-0.027c-0.166-0.052,0.178,0.056,0.127,0.041l-0.043-0.012l-0.685-0.186
			c-0.457-0.124-0.915-0.248-1.374-0.372c-0.919-0.244-1.836-0.505-2.754-0.768c-0.919-0.261-1.839-0.523-2.761-0.785l-2.625-0.623
			l-2.79-0.698l-1.393-0.349l-0.348-0.087l-0.174-0.044l-0.087-0.022c0.064,0.014-0.204-0.046,0.132,0.028l-0.044-0.009
			l-0.702-0.142c-1.874-0.37-3.73-0.795-5.577-1.185l-0.691-0.149l-0.345-0.074c0.337,0.057,0.068,0.012,0.132,0.022l-0.043-0.007
			l-0.087-0.015l-0.174-0.029c-0.463-0.079-0.926-0.158-1.387-0.236c-0.921-0.166-1.838-0.331-2.749-0.495
			c-0.455-0.082-0.91-0.164-1.362-0.245l-0.678-0.122l-0.338-0.061l-0.169-0.03l-0.084-0.015l-0.042-0.008
			c-0.053-0.008,0.31,0.037,0.136,0.016c-0.906-0.116-1.803-0.253-2.695-0.377c-0.891-0.127-1.774-0.253-2.649-0.377
			c-0.437-0.063-0.873-0.126-1.306-0.189l-0.162-0.025l-0.081-0.013c0.336,0.023,0.07,0.004,0.134,0.008l-0.041-0.004l-0.325-0.033
			l-0.648-0.066c-1.724-0.182-3.412-0.336-5.053-0.53l-0.307-0.035l-0.153-0.018l-0.076-0.009c0.314,0.005,0.065,0,0.125,0.001
			l-0.038-0.002c-0.205-0.012-0.409-0.024-0.612-0.036c-0.407-0.024-0.81-0.047-1.211-0.07c-0.801-0.047-1.59-0.089-2.366-0.147
			c-0.745-0.052-1.478-0.102-2.197-0.152c-0.721-0.019-1.429-0.033-2.127-0.064c-0.686-0.039-1.414-0.019-2.1-0.026
			c-0.346-0.001-0.687-0.001-1.025-0.002c-0.158-0.001-0.314-0.003-0.47-0.004c-0.16,0.003-0.319,0.005-0.477,0.008
			c-0.636,0.01-1.255,0.02-1.857,0.03c-0.602,0.007-1.223,0.064-1.806,0.082c-0.294,0.014-0.583,0.027-0.867,0.041
			c-0.142,0.007-0.283,0.013-0.423,0.02c-0.032,0.004,0.015-0.005,0.001-0.003l-0.025,0.002l-0.05,0.004l-0.1,0.008l-0.199,0.017
			c-0.532,0.041-1.045,0.081-1.538,0.119c-0.249,0.019-0.493,0.038-0.731,0.056c-0.243,0.029-0.48,0.058-0.712,0.085
			c-0.465,0.052-0.908,0.102-1.329,0.149c-1.618,0.216-2.946,0.401-3.837,0.587C39.437,34.155,38.958,34.24,38.958,34.24z"/>
		<path fill="#0033F6" d="M159.844,114.586c0,0-0.29,0.257-0.793,0.772c-0.504,0.513-1.227,1.275-2.093,2.282
			c-0.865,1.007-1.879,2.25-2.965,3.722c-0.544,0.736-1.111,1.522-1.68,2.372c-0.583,0.836-1.163,1.739-1.753,2.685
			c-1.191,1.884-2.376,3.985-3.547,6.236c-0.295,0.561-0.576,1.141-0.867,1.722c-0.296,0.578-0.574,1.176-0.857,1.777
			c-0.562,1.205-1.105,2.45-1.651,3.716c-0.273,0.633-0.524,1.283-0.789,1.93c-0.252,0.653-0.506,1.311-0.761,1.973
			c-0.244,0.666-0.489,1.336-0.735,2.009c-0.246,0.707-0.492,1.417-0.74,2.13c-1.013,2.871-2.153,5.776-3.433,8.631
			c-2.558,5.71-5.681,11.233-9.227,16.021c-1.772,2.393-3.636,4.608-5.558,6.569c-0.948,0.991-1.919,1.912-2.886,2.77
			c-0.959,0.867-1.93,1.656-2.882,2.386c-1.901,1.463-3.762,2.646-5.462,3.581c-1.704,0.933-3.248,1.617-4.542,2.106
			c-1.297,0.485-2.338,0.784-3.05,0.969c-0.357,0.091-0.634,0.149-0.82,0.191c-0.185,0.041-0.281,0.062-0.281,0.062
			s0.301-0.249,0.865-0.716c0.556-0.474,1.374-1.145,2.362-2.037c0.991-0.887,2.153-1.99,3.418-3.291
			c1.268-1.298,2.625-2.813,4.031-4.509c0.701-0.85,1.406-1.754,2.129-2.689c0.715-0.944,1.432-1.933,2.16-2.956
			c1.432-2.064,2.885-4.277,4.309-6.623c2.854-4.689,5.622-9.882,8.236-15.213c1.31-2.665,2.59-5.358,3.857-8.038
			c0.654-1.379,1.303-2.747,1.945-4.098c0.673-1.37,1.391-2.698,2.115-3.992c0.726-1.294,1.48-2.542,2.262-3.738
			c0.39-0.598,0.772-1.19,1.172-1.762c0.388-0.579,0.793-1.136,1.2-1.681c1.607-2.191,3.261-4.158,4.882-5.879
			c0.821-0.853,1.617-1.656,2.402-2.392c0.784-0.736,1.559-1.402,2.287-2.019c1.477-1.218,2.831-2.19,3.978-2.934
			c1.15-0.742,2.093-1.255,2.745-1.581C159.482,114.726,159.844,114.586,159.844,114.586z"/>
		<path fill="#F9081B" d="M41.567,87.055c0,0,0.102,0.08,0.299,0.235c0.194,0.155,0.49,0.396,0.841,0.738
			c0.712,0.677,1.684,1.775,2.682,3.345c1.009,1.563,2.027,3.591,2.962,5.996c0.931,2.406,1.773,5.188,2.496,8.252
			c0.721,3.065,1.322,6.411,1.811,9.956c0.482,3.545,0.861,7.288,1.129,11.155c0.15,1.933,0.246,3.897,0.341,5.883
			c0.044,0.992,0.089,1.991,0.133,2.994c0.029,0.991,0.058,1.988,0.086,2.988c0.019,0.492,0.03,1.03,0.057,1.488
			c0.025,0.467,0.046,0.93,0.082,1.416c0.064,0.96,0.143,1.922,0.227,2.886c0.176,1.926,0.438,3.851,0.763,5.763
			c0.302,1.916,0.686,3.819,1.139,5.695c0.463,1.874,0.94,3.737,1.524,5.552c0.282,0.911,0.595,1.806,0.908,2.697
			c0.309,0.892,0.637,1.772,0.98,2.64c0.689,1.735,1.445,3.416,2.225,5.052c1.598,3.252,3.377,6.285,5.307,8.996
			c1.923,2.717,3.976,5.128,6.05,7.195c2.07,2.072,4.159,3.806,6.12,5.22c1.962,1.414,3.791,2.519,5.346,3.364
			c1.557,0.841,2.83,1.445,3.709,1.84c0.885,0.392,1.357,0.601,1.357,0.601s-0.129-0.012-0.378-0.035
			c-0.249-0.028-0.624-0.048-1.105-0.117c-0.967-0.119-2.384-0.341-4.166-0.787c-1.783-0.438-3.924-1.128-6.297-2.173
			c-2.37-1.047-4.955-2.48-7.58-4.355c-2.62-1.878-5.266-4.206-7.759-6.957c-2.491-2.751-4.824-5.922-6.874-9.411
			c-1.034-1.74-1.977-3.569-2.855-5.455c-0.886-1.883-1.68-3.834-2.382-5.833c-1.438-3.99-2.482-8.178-3.208-12.413
			c-0.339-2.122-0.601-4.255-0.772-6.387c-0.085-1.066-0.157-2.131-0.182-3.195c-0.021-0.526-0.028-1.074-0.037-1.617
			c-0.011-0.552-0.003-1.022-0.005-1.536c0.038-4.007,0.076-7.951,0.112-11.767c0.02-3.795,0.028-7.455-0.037-10.916
			c-0.058-3.461-0.172-6.725-0.381-9.722c-0.199-2.999-0.496-5.732-0.884-8.131c-0.389-2.398-0.88-4.462-1.423-6.123
			c-0.542-1.661-1.128-2.923-1.594-3.756c-0.234-0.417-0.421-0.73-0.561-0.941C41.639,87.163,41.567,87.055,41.567,87.055z"/>
	</g>
	<g>
		<path fill="#FFFFFF" d="M145.596,196.883v-16.654h-6.221V178h14.968v2.228h-6.247v16.654H145.596z"/>
		<path fill="#FFFFFF" d="M156.827,196.883V178h3.761l4.469,13.37c0.412,1.245,0.713,2.177,0.902,2.795
			c0.215-0.687,0.55-1.696,1.005-3.027L171.486,178h3.361v18.883h-2.408v-15.804l-5.487,15.804h-2.254l-5.461-16.075v16.075H156.827
			z"/>
	</g>
</g>
</svg>
